<svg xmlns="http://www.w3.org/2000/svg" viewBox="0 0 692.52 500"><defs><style>.cls-1,.cls-5{fill:#fff;}.cls-2{fill:#e2e8f5;}.cls-12,.cls-14,.cls-15,.cls-17,.cls-19,.cls-2,.cls-20,.cls-24,.cls-25,.cls-26,.cls-27,.cls-28,.cls-29,.cls-3,.cls-30,.cls-31,.cls-32,.cls-34,.cls-35,.cls-36,.cls-37,.cls-38,.cls-39,.cls-4,.cls-5,.cls-6,.cls-7,.cls-8,.cls-9{fill-rule:evenodd;}.cls-3{fill:#9eb1d9;}.cls-4{fill:#b6c7e6;}.cls-6{fill:#bfcce8;}.cls-7{fill:#f08d1b;}.cls-8{fill:#f9c00b;}.cls-10,.cls-9{fill:#01020e;}.cls-11,.cls-15{fill:#0e1632;}.cls-12{fill:#383d5d;}.cls-13,.cls-14{fill:#e9eff8;}.cls-16{font-size:154.25px;font-family:BebasKai, BebasKai;}.cls-16,.cls-27,.cls-40{fill:#008689;}.cls-17,.cls-22{fill:#a4a7b2;}.cls-18,.cls-20{fill:#636777;}.cls-19,.cls-21{fill:#7d8193;}.cls-23,.cls-24{fill:#f09996;}.cls-25{fill:#e03c82;}.cls-26{fill:#005253;}.cls-28{fill:#5bb9bd;}.cls-29,.cls-33{fill:#e8685b;}.cls-30{fill:#f5f4f4;}.cls-31{fill:#004a82;}.cls-32{fill:#01061b;}.cls-34{fill:#f4ad85;}.cls-35{fill:#ef8871;}.cls-36{fill:#01051a;}.cls-37{fill:#0076bd;}.cls-38{fill:#ed9072;}.cls-39{fill:#0d5ca9;}</style></defs><title>404-psge</title><g id="BACKGROUND"><rect class="cls-1" x="96.26" width="500" height="500"/></g><g id="OBJECTS"><path class="cls-2" d="M580.47,326.35h56.84A55.78,55.78,0,0,1,692.93,382h0a55.78,55.78,0,0,1-55.62,55.62H139.71c-49.53,0-90.06-40.53-90.06-90.06h0c0-49.53,40.53-90.06,90.06-90.06h0a38.19,38.19,0,0,0,38.08-38.08h0a38.19,38.19,0,0,0-38.08-38.08H122.1a39.71,39.71,0,0,1-39.59-39.59h0a39.71,39.71,0,0,1,39.59-39.59H201a15.46,15.46,0,0,0,15.41-15.41h0A15.46,15.46,0,0,0,201,71.3H190.81a10.67,10.67,0,0,1-10.64-10.64h0A10.67,10.67,0,0,1,190.81,50h41.13c14.12,0,15.69,16.68,51.35,16.68h139a13.92,13.92,0,0,1,13.88,13.88h0a13.92,13.92,0,0,1-13.88,13.88H408.93a20.17,20.17,0,0,0-20.11,20.11h0a20.17,20.17,0,0,0,20.11,20.11H429c54.17,0,61.83,14.16,71.31,42.31s58.76,30.43,58.76,30.43h30.48a30.4,30.4,0,0,1,30.31,30.31h0A30.4,30.4,0,0,1,589.54,268h-9.07a29.24,29.24,0,0,0-29.15,29.15h0a29.24,29.24,0,0,0,29.15,29.15ZM161,71.3a10.64,10.64,0,1,0-10.64-10.64A10.64,10.64,0,0,0,161,71.3Z" transform="translate(-28.74)"/><path class="cls-3" d="M439.13,273.52q-.88-12.16-.83-23.61,0-11.63,1-22.43c2.4-26.95,8.95-50.19,18.7-70a158.84,158.84,0,0,1,41.77-52.95,180.75,180.75,0,0,1,52.63-29.83A237.1,237.1,0,0,1,617.21,61c7.52-.55,15.11-.78,22.72-.72s15.38.45,23,1.13h0a3.15,3.15,0,0,1,2.86,3.4l0,.22c-.31,3-7.16,66.62-38.18,124.14-31.37,58.18-87.35,110.1-186,87.23a3.14,3.14,0,0,1-2.42-2.9ZM662.33,66.41C658.63,67.86,643.46,74,622.17,86c8.3,1.48,27.12,5,35.57,7.67,2.8-13.52,4.12-23.41,4.58-27.3Zm-5.21,30.26h0c-9.76-3.19-35.22-7.63-39-8.28C607.48,94.51,595.55,102,582.88,111l66,17.37c3.52-11.62,6.19-22.42,8.19-31.7ZM648,131.25l-68.34-18A455.71,455.71,0,0,0,543,142.76c13.55,4.13,78.35,24,89.33,29.54a338,338,0,0,0,15.68-41Zm-17,43.76c-11-5.66-82.57-27.46-90.66-29.91-10,9.06-20,19-29.92,29.89l101.79,32.49a1.55,1.55,0,0,1,.35.17c4.38-6.51,8.39-13.21,12.05-20q3.38-6.28,6.38-12.63ZM610.92,210.2,508.3,177.45c-7.68,8.59-15.25,17.75-22.58,27.5,16.58,5.61,101.54,32,101.79,32.12a1.49,1.49,0,0,1,.6.36,187.64,187.64,0,0,0,22.8-27.22Zm-25.14,29.47c-9-2.8-88.51-27.56-101.95-32.19q-9.43,12.73-18.25,26.8c20.07,9.91,87.54,27.43,87.74,27.48a1.51,1.51,0,0,1,.92.7,146.32,146.32,0,0,0,31.54-22.78Zm-35,24.54C540,261.37,482.27,246,464,236.85q-5.61,9.13-10.88,18.83c7.7,3,42.22,16.29,64.52,18.57a1.51,1.51,0,0,1,1.3,1.09,135.79,135.79,0,0,0,31.89-11.12Zm-38.48,12.37c-22.84-3.57-54.08-15.64-60.66-18.25q-4,7.46-7.72,15.26c25.64,5.75,48.33,6.32,68.38,3Zm-70.14-6.26q3.47-7.14,7.14-14c-3.08-8.54-5.36-23.34-6.48-31.64q-.15,1.52-.29,3.06-1,10.67-1,22.15,0,9.86.63,20.41Zm1.59-53.39a1.5,1.5,0,0,1,1.31,1.33c0,.07,2.4,21.8,6.22,34.43q5.09-9.28,10.5-18a294.36,294.36,0,0,1-10-53.37,201.94,201.94,0,0,0-8.08,35.66Zm9.8-40.67a1.5,1.5,0,0,1,1,1.31A288.63,288.63,0,0,0,464,231.2q8.52-13.51,17.66-25.78c-1.77-5.24-12-36.44-13.48-59.62q-3.83,6.26-7.18,13.06a170.81,170.81,0,0,0-7.37,17.41Zm16.75-34a1.51,1.51,0,0,1,.71,1.22c.8,21,9.85,50,12.78,59,7.24-9.58,14.69-18.58,22.26-27-13.52-28.66-15.56-52-15.87-57.81a154.51,154.51,0,0,0-19.88,24.68Zm22.4-27.17a1.5,1.5,0,0,1,.44,1c0,.07.28,24.89,15.09,56.85,9.91-10.91,20-20.89,30-30-6.07-13.66-11.93-47.68-12.71-52.34a167.12,167.12,0,0,0-23.7,16.3q-4.71,3.88-9.13,8.15Zm35.53-26a1.51,1.51,0,0,1,.17.49c0,.11,6,36.35,12.2,51.23A459.07,459.07,0,0,1,577.74,111c-4.39-17.51-4.29-36.5-4.24-39.56q-10.17,2.66-20,6.27a190,190,0,0,0-25.29,11.47Zm48.22-18.49a1.49,1.49,0,0,1,0,.4c0,.06-.52,19.68,3.86,38,12.9-9.19,25-16.85,35.84-23.12a109,109,0,0,1-.43-21.6,245.26,245.26,0,0,0-39.31,6.29Zm42.33-6.51a1.47,1.47,0,0,1,0,.24,107.43,107.43,0,0,0,.23,20,353,353,0,0,1,40.24-20q-9.64-.75-19.37-.84Q629.4,63.46,618.81,64.18Z" transform="translate(-28.74)"/><path class="cls-4" d="M540.13,335.33c10.89-15.79,33.71-42.05,77.33-68.19,69-41.35,121.29-96.15,98.31-128.57-22.55-31.82-123.61,29.64-207.54,183.25C520.57,328.27,531.11,332.63,540.13,335.33Z" transform="translate(-28.74)"/><path class="cls-5" d="M526.65,321.29a42.17,42.17,0,0,1,13.61,1.86.88.88,0,1,0,.5-1.68,45.75,45.75,0,0,0-13.07-2q2.24-3.8,4.47-7.49c3-.07,12.87-.26,16.56-.06a.88.88,0,0,0,.1-1.75c-3.39-.19-11.72,0-15.58,0q4.2-6.88,8.4-13.37a203.9,203.9,0,0,1,22.2,1.68.88.88,0,0,0,.24-1.74,206.5,206.5,0,0,0-21.33-1.67q4.24-6.53,8.47-12.69a289.48,289.48,0,0,1,31.71,2.39.88.88,0,1,0,.24-1.74,292.49,292.49,0,0,0-30.75-2.38q5.57-8.06,11.1-15.48c4.23-.18,21.75-.63,34.9,3.59a.88.88,0,1,0,.54-1.67c-12.25-3.93-28.16-3.9-34.11-3.72q6.8-9.07,13.49-17.23c5.76.32,29,2.08,39.81,9.77a.88.88,0,1,0,1-1.43c-10.53-7.45-32-9.5-39.43-10q7.11-8.6,14-16.23c4.21,1,21.81,5.23,38.35,13.54a.88.88,0,0,0,.79-1.56,183.92,183.92,0,0,0-37.8-13.46q4.1-4.48,8.13-8.64c4,.83,21.17,4.74,43.87,15.73a.88.88,0,1,0,.77-1.58c-21.17-10.25-37.61-14.4-43.18-15.63q9.57-9.78,18.61-17.82c5.09,1.68,30.88,10.41,44.44,19a.88.88,0,0,0,.94-1.48c-13-8.28-37-16.61-43.86-18.9q5.26-4.64,10.3-8.74c4.36,1.48,24.35,8.51,42.59,19.08a.88.88,0,1,0,.88-1.51c-17.18-10-35.89-16.8-41.86-18.87,7.85-6.31,15.25-11.66,22.07-16.17,4.31,1,23.79,5.89,38.41,14.38a.88.88,0,1,0,.88-1.51c-13.44-7.8-30.88-12.58-37.28-14.17q4.23-2.74,8.14-5.05a135.63,135.63,0,0,1,33.17,8.44.88.88,0,1,0,.63-1.64,142.93,142.93,0,0,0-31.31-8.27c21-12.13,34-15.21,34.15-15.24a1.31,1.31,0,1,0-.64-2.55,100.84,100.84,0,0,0-15.77,5.78c2.73-3.44,6.6-8.19,7.62-8.82a.88.88,0,0,0-.91-1.49c-1.58,1-8,9.09-10.19,11.9-4,1.9-8.64,4.23-13.73,7.11L680.63,143a.88.88,0,0,0-1.56-.79l-9.85,19.58q-5.24,3.06-11.08,6.88l9.33-20.39a.88.88,0,0,0-1.59-.73l-10.51,23c-5.82,3.92-12,8.42-18.55,13.6L644.9,163a.88.88,0,0,0-1.64-.63l-9.16,23.95q-4.47,3.63-9.12,7.66l6.86-19a.88.88,0,1,0-1.65-.6l-7.94,22q-8.62,7.66-17.76,16.85l5.16-18.6a.88.88,0,1,0-1.69-.47l-6,21.64q-3.61,3.71-7.29,7.7l2.89-14.2a.87.87,0,1,0-1.71-.35l-3.48,17q-6.84,7.5-13.85,15.94l2.7-15.83a.88.88,0,0,0-1.73-.29l-3.21,18.82q-6.14,7.49-12.38,15.75l1.76-14.06a.88.88,0,1,0-1.74-.22l-2.14,17.11q-5.44,7.3-10.93,15.2l.09-12.69a.88.88,0,1,0-1.75,0l-.11,15.26q-4,5.77-7.95,11.88L539.77,282a.88.88,0,0,0-1.74.22l1.62,12.88q-3.66,5.66-7.33,11.61l-1.27-7a.88.88,0,1,0-1.73.32l1.62,8.92q-2.73,4.48-5.47,9.12l-2.9-5.74a.87.87,0,0,0-1.56.79l3.41,6.74q-2.23,3.8-4.45,7.71l2.41,1.08Q524.51,324.93,526.65,321.29Z" transform="translate(-28.74)"/><path class="cls-3" d="M539.67,346.06c10.89-6.88,30.1-16.11,59.11-20.24,49.24-7,93.18-27.2,89.86-54.12-3.21-25.93-73-15.94-159.87,54.41L539.63,346Z" transform="translate(-28.74)"/><path class="cls-4" d="M675.35,275.72a1.69,1.69,0,1,0,0-3.38,120.07,120.07,0,0,0-14.92,1.25l8-5.42a1.12,1.12,0,1,0-1.26-1.86l-11.94,8.06c-4.37.71-9.33,1.68-14.82,3l8.44-8.06a1.13,1.13,0,0,0-1.55-1.63L636,278.47c-5.69,1.49-11.85,3.33-18.38,5.62l7.06-7.27a1.12,1.12,0,1,0-1.61-1.57l-10.31,10.61c-6.83,2.57-14,5.61-21.45,9.24l6-7.67a1.12,1.12,0,1,0-1.77-1.38l-8.87,11.4c-7,3.58-14.13,7.68-21.4,12.36l2.45-5.22a1.13,1.13,0,0,0-2-1l-4,8.52q-8.27,5.51-16.68,12.07l2.24-5.31a1.13,1.13,0,0,0-2.07-.87l-3.85,9.13q-4.08,3.32-8.17,6.91l1.66,3q4.08-3.61,8.16-6.94c2.78.18,9.45.75,12.26,2.22a1.13,1.13,0,0,0,1.05-2c-2.48-1.3-7.36-2-10.76-2.28q3.23-2.57,6.45-5c2.74.46,9.45,1.77,13.92,4.3a1.13,1.13,0,0,0,1.11-2c-3.83-2.17-9.14-3.49-12.56-4.18q6.65-4.85,13.2-9c3.75,1.55,15.61,6.59,20.27,10.42a1.12,1.12,0,1,0,1.43-1.74c-4.37-3.59-14.54-8.11-19.37-10.15q7-4.39,13.85-8.06c3.74,1.44,15.93,6.38,24,12.74a1.13,1.13,0,0,0,1.39-1.77c-7.24-5.73-17.7-10.32-22.76-12.37q3.38-1.78,6.7-3.39a109.11,109.11,0,0,1,29.2,14.62,1.13,1.13,0,0,0,1.33-1.82A111.4,111.4,0,0,0,596,296.58a241,241,0,0,1,22.95-9.4c4.3,2.66,20.95,13.13,28.23,20a1.12,1.12,0,0,0,1.55-1.63c-6.74-6.41-21.14-15.67-27-19.36,5.41-1.82,10.54-3.32,15.33-4.57,3.86,3,18.13,13.88,21.44,16.73a1.12,1.12,0,1,0,1.47-1.7c-3-2.62-15-11.79-20.13-15.74,6.27-1.54,11.89-2.64,16.71-3.4,3.47,3,11.82,10.3,13.78,12.25a1.12,1.12,0,0,0,1.59-1.59c-1.74-1.74-8.48-7.64-12.45-11.1A121.89,121.89,0,0,1,675.35,275.72Z" transform="translate(-28.74)"/><path class="cls-3" d="M177,293.8s-23.75-9-22.91-37.84-17.55-35.84-22.93-43.78,2.93-22.69.44-34.49S115,164.3,119.58,147.2,118,124.51,107.48,108s-1-44.77,5-45.31-.57,6.56,6,17.61,29.15,12,37.21,21-2.65,23.25,6.78,35.48,32.52,5.45,40.22,17.49-5.4,29,.46,41.92,22.65,18.63,30.59,28.6,22.85,29.11,5.13,56.05S177,293.8,177,293.8Z" transform="translate(-28.74)"/><path class="cls-4" d="M112.8,87.25a1.47,1.47,0,0,1,2.6-1.36L235.85,316.1l-3.6-.55Z" transform="translate(-28.74)"/><path class="cls-4" d="M155.14,267.15q-.37-1.66-.61-3.44l64.85,27.22-7-13.38-.09-.17-3.59-6.86-54.91-23q-.21-1.77-.52-3.4l53.3,22.37-6.33-12.1L149.5,233a38.52,38.52,0,0,0-2.58-4.27l51.17,21.48-3.14-6a1.41,1.41,0,0,1-.1-.18L181.1,217.79l-50.78-21.31c.17-1,.35-2,.53-3L179,213.71l-6.86-13.12-40-16.79a29.45,29.45,0,0,0-.06-3.21L170,196.51l-5.16-9.87-.07-.14-15-28.67L120,145.37q.36-1.53.59-2.94l27,11.32-13.1-25-.08-.15L112.8,87.25a1.47,1.47,0,0,1,2.6-1.36L135,123.43l5.25-30.52,2.8,1-5.8,33.76,14.76,28.21.06.11,13.65,26.09,12.5-37.49c1,.19,1.94.37,2.92.54l-13.53,40.57,5.2,9.94,16.51-49c1,.21,1.93.45,2.86.71L175,198.61l.37.16a1.47,1.47,0,0,1,.79,1.92,1.48,1.48,0,0,1-.39.55l7.67,14.66.07.13,12.41,23.73,12.23-36.31c.74.8,1.52,1.57,2.32,2.32l-12.67,37.61,3.19,6.1,13.56-40.27q1.22.95,2.48,1.86l-14.15,42L211,268.63l.06.12,2.25,4.31,17.38-51.59c.82.77,1.59,1.57,2.3,2.39l-17.79,52.81,8.61,16.46.06.11,0,.05q-1.66.74-3.37,1.32Z" transform="translate(-28.74)"/><path class="cls-6" d="M184.39,346.6c-7.33-2.86-14.07-3.15-18.19-5.18-8.22-4-8.29-20.23-15.94-28.84s-20.13-3.27-24.43-19.63-12.06-18.08-28.6-26.85-22-36.7-17.28-40,2.63,5.72,13.32,11.77,29.9-3.79,40.81-.17,8.79,20.55,22.4,26.26,29.58-10.85,41.67-4.5,9.25,26.66,20.2,34.59,27.61,4.76,38.92,9.29c6.36,2.55,15.91,6.46,22.71,14.85Z" transform="translate(-28.74)"/><path class="cls-2" d="M227.76,333.72l-17.49-11.24L158,328.79l-1-2.71,49.49-6-11.9-7.65-41.15,5a28.07,28.07,0,0,0-1.56-2.64l39-4.71-9-5.75-.13-.08-26-16.71-30.54,3.69c-.29-1-.58-1.86-.9-2.72l27.74-3.35-22.71-14.59-.13-.09L91.84,246.38A1.4,1.4,0,1,1,93.36,244l34.06,21.89-10.07-27.82,2.82-.45,11.14,30.78,25.6,16.45.1.07,23.67,15.21-7.34-37c.89-.3,1.79-.61,2.68-.93L184,302.25l9,5.8-9.47-48.51c.91-.29,1.82-.54,2.72-.76l9.89,50.68.38,0a1.4,1.4,0,0,1,1.49,1.86l13.3,8.54.12.08,19.89,12.78-3.55,1.05Zm4.9-1.46,2.71-.8L229,298.61c-1-.24-2-.51-3-.82l6.73,34.48Zm7.28-2.16-6-30.58q1.46.21,2.94.38l5.73,29.39-2.71.8Zm17.7-5.26-4.44-22.76c1,.25,2.06.55,3,.89L260.35,324Z" transform="translate(-28.74)"/><path class="cls-7" d="M313.07,140ZM300.63,92.58a23.94,23.94,0,1,0,7,16.93,23.86,23.86,0,0,0-7-16.93Zm-5.17-23.73a42,42,0,0,1,9.38,4A42.52,42.52,0,0,1,313.07,79a1.47,1.47,0,0,0,1.75.21L326,72.84l.06,0a2.78,2.78,0,0,1,3.7,1l0,.08,7.83,13.56a2.78,2.78,0,0,1-1,3.77l-.08,0-11,6.37a1.47,1.47,0,0,0-.69,1.62h0A42.51,42.51,0,0,1,326,109.51a42.46,42.46,0,0,1-1.24,10.22,1.47,1.47,0,0,0,.78,1.67l11,6.37h0a2.78,2.78,0,0,1,1,3.77l-7.87,13.63h0a2.77,2.77,0,0,1-3.76,1l-.08,0-11-6.38a1.47,1.47,0,0,0-1.75.21,42.5,42.5,0,0,1-8.23,6.2,42,42,0,0,1-9.45,4,1.47,1.47,0,0,0-1.07,1.41v12.83a2.76,2.76,0,0,1-2.75,2.75H275.82a2.77,2.77,0,0,1-2.75-2.75V151.6a1.47,1.47,0,0,0-1.13-1.43,42,42,0,0,1-9.38-4,42.47,42.47,0,0,1-8.23-6.21,1.47,1.47,0,0,0-1.83-.17l-11.05,6.38a2.78,2.78,0,0,1-3.77-1l0-.08-7.83-13.56h0a2.78,2.78,0,0,1,1-3.76l11.12-6.42a1.47,1.47,0,0,0,.69-1.62h0a42.62,42.62,0,0,1,0-20.43,1.47,1.47,0,0,0-.78-1.67l-11-6.37a2.78,2.78,0,0,1-1-3.76l0-.08,7.83-13.56h0a2.78,2.78,0,0,1,3.77-1h0l11.13,6.42a1.47,1.47,0,0,0,1.79-.24,42.57,42.57,0,0,1,8.2-6.17,42.05,42.05,0,0,1,9.44-4,1.47,1.47,0,0,0,1.07-1.41V54.58a2.77,2.77,0,0,1,2.75-2.75h15.75a2.76,2.76,0,0,1,2.75,2.75V67.42A1.47,1.47,0,0,0,295.46,68.85Z" transform="translate(-28.74)"/><path class="cls-7" d="M313.5,140ZM301.05,92.58a23.94,23.94,0,1,0,7,16.93,23.86,23.86,0,0,0-7-16.93Zm-5.17-23.73a42,42,0,0,1,9.38,4A42.52,42.52,0,0,1,313.5,79a1.47,1.47,0,0,0,1.75.21l11.13-6.42.06,0a2.78,2.78,0,0,1,3.7,1l0,.08L338,87.48a2.78,2.78,0,0,1-1,3.77l-.07,0-11,6.37a1.47,1.47,0,0,0-.69,1.62h0a42.13,42.13,0,0,1,.93,5.06,42.61,42.61,0,0,1-.93,15.38,1.47,1.47,0,0,0,.78,1.67l11,6.37h0a2.78,2.78,0,0,1,1,3.77l-7.87,13.63h0a2.77,2.77,0,0,1-3.76,1l-.08,0-11-6.38a1.47,1.47,0,0,0-1.75.21,42.26,42.26,0,0,1-17.68,10.22,1.47,1.47,0,0,0-1.07,1.41v12.83a2.76,2.76,0,0,1-2.75,2.75H276.25a2.76,2.76,0,0,1-2.75-2.75V151.6a1.47,1.47,0,0,0-1.13-1.43,42,42,0,0,1-9.38-4,42.45,42.45,0,0,1-8.23-6.21,1.47,1.47,0,0,0-1.83-.17l-11,6.38a2.78,2.78,0,0,1-3.77-1l0-.08-7.83-13.56h0a2.78,2.78,0,0,1,1-3.76l11.12-6.42a1.47,1.47,0,0,0,.69-1.62h0a42.2,42.2,0,0,1-.93-5.06,42.94,42.94,0,0,1,0-10.32,42.13,42.13,0,0,1,.93-5.06,1.47,1.47,0,0,0-.78-1.67l-11-6.37a2.78,2.78,0,0,1-1-3.76l0-.08,7.83-13.56h0a2.78,2.78,0,0,1,3.77-1h0L253,79.26a1.47,1.47,0,0,0,1.79-.24,42.55,42.55,0,0,1,8.2-6.18,42,42,0,0,1,9.44-4,1.47,1.47,0,0,0,1.07-1.41V54.58a2.76,2.76,0,0,1,2.75-2.75H292a2.76,2.76,0,0,1,2.75,2.75V67.42A1.47,1.47,0,0,0,295.88,68.85Z" transform="translate(-28.74)"/><path class="cls-7" d="M313.93,140ZM301.48,92.58a23.94,23.94,0,1,0,7,16.93,23.87,23.87,0,0,0-7-16.93Zm-5.17-23.73a42,42,0,0,1,9.38,4A42.53,42.53,0,0,1,313.93,79a1.47,1.47,0,0,0,1.75.21l11.13-6.42.06,0a2.78,2.78,0,0,1,3.7,1l0,.08,7.83,13.56a2.78,2.78,0,0,1-1,3.77l-.08,0-11,6.37a1.47,1.47,0,0,0-.69,1.62h0a42.63,42.63,0,0,1,0,20.43,1.47,1.47,0,0,0,.78,1.67l11,6.37h0a2.78,2.78,0,0,1,1,3.77l-7.87,13.63h0a2.77,2.77,0,0,1-3.76,1l-.08,0-11-6.38a1.47,1.47,0,0,0-1.75.21,42.26,42.26,0,0,1-17.68,10.22,1.47,1.47,0,0,0-1.07,1.41v12.83a2.76,2.76,0,0,1-2.75,2.75H276.68a2.76,2.76,0,0,1-2.75-2.75V151.6a1.47,1.47,0,0,0-1.13-1.43,42,42,0,0,1-9.38-4,42.42,42.42,0,0,1-8.23-6.21,1.47,1.47,0,0,0-1.83-.17l-11,6.38a2.78,2.78,0,0,1-3.77-1l0-.08-7.83-13.56h0a2.78,2.78,0,0,1,1-3.76l11.12-6.42a1.47,1.47,0,0,0,.69-1.62h0a42.54,42.54,0,0,1-1.24-10.22,42.7,42.7,0,0,1,.31-5.16,42.19,42.19,0,0,1,.93-5.06,1.47,1.47,0,0,0-.78-1.67l-11-6.37a2.78,2.78,0,0,1-1-3.76l0-.08,7.83-13.56h0a2.78,2.78,0,0,1,3.77-1h0l11.13,6.42a1.47,1.47,0,0,0,1.79-.24,42.55,42.55,0,0,1,8.2-6.18,42,42,0,0,1,9.44-4,1.47,1.47,0,0,0,1.07-1.41V54.58a2.76,2.76,0,0,1,2.75-2.75h15.75a2.76,2.76,0,0,1,2.75,2.75V67.42A1.47,1.47,0,0,0,296.31,68.85Z" transform="translate(-28.74)"/><path class="cls-7" d="M314.35,140ZM301.91,92.58a23.94,23.94,0,1,0,7,16.93,23.87,23.87,0,0,0-7-16.93Zm-5.17-23.73a42,42,0,0,1,9.38,4A42.5,42.5,0,0,1,314.35,79a1.47,1.47,0,0,0,1.75.21l11.13-6.42.06,0a2.78,2.78,0,0,1,3.7,1l0,.08,7.83,13.56a2.78,2.78,0,0,1-1,3.77l-.07,0-11,6.37a1.47,1.47,0,0,0-.69,1.62h0a42,42,0,0,1,.93,5.06,42.93,42.93,0,0,1,0,10.32,42.09,42.09,0,0,1-.93,5.06,1.47,1.47,0,0,0,.78,1.67l11,6.37h0a2.78,2.78,0,0,1,1,3.77L331,145.17h0a2.77,2.77,0,0,1-3.76,1l-.08,0-11-6.38a1.47,1.47,0,0,0-1.75.21,42.26,42.26,0,0,1-17.68,10.22,1.47,1.47,0,0,0-1.07,1.41v12.83a2.76,2.76,0,0,1-2.75,2.75H277.1a2.77,2.77,0,0,1-2.75-2.75V151.6a1.47,1.47,0,0,0-1.13-1.43,42,42,0,0,1-9.38-4A42.44,42.44,0,0,1,255.6,140a1.47,1.47,0,0,0-1.83-.17l-11,6.38a2.78,2.78,0,0,1-3.77-1l0-.08-7.83-13.56h0a2.78,2.78,0,0,1,1-3.76l11.12-6.42a1.47,1.47,0,0,0,.69-1.62h0a42.53,42.53,0,0,1-1.24-10.22,42.72,42.72,0,0,1,.31-5.16,42,42,0,0,1,.93-5.06,1.47,1.47,0,0,0-.78-1.67l-11-6.37a2.78,2.78,0,0,1-1-3.76l0-.08L239,73.85h0a2.78,2.78,0,0,1,3.77-1h0l11.13,6.42a1.47,1.47,0,0,0,1.79-.24,42.55,42.55,0,0,1,8.2-6.18,42.06,42.06,0,0,1,9.44-4,1.47,1.47,0,0,0,1.07-1.41V54.58a2.77,2.77,0,0,1,2.75-2.75h15.75a2.76,2.76,0,0,1,2.75,2.75V67.42A1.47,1.47,0,0,0,296.74,68.85Z" transform="translate(-28.74)"/><path class="cls-7" d="M314.78,140ZM302.33,92.58a23.94,23.94,0,1,0,7,16.93,23.87,23.87,0,0,0-7-16.93Zm-5.17-23.73a42,42,0,0,1,9.38,4A42.54,42.54,0,0,1,314.78,79a1.47,1.47,0,0,0,1.75.21l11.13-6.42.06,0a2.78,2.78,0,0,1,3.7,1l0,.08,7.83,13.56a2.78,2.78,0,0,1-1,3.77l-.08,0-11,6.37a1.47,1.47,0,0,0-.69,1.62h0a42.31,42.31,0,0,1,.93,5.06,43.05,43.05,0,0,1,0,10.32,42.26,42.26,0,0,1-.93,5.06,1.47,1.47,0,0,0,.78,1.67l11,6.37h0a2.78,2.78,0,0,1,1,3.77l-7.87,13.63h0a2.77,2.77,0,0,1-3.76,1l-.08,0-11-6.38a1.47,1.47,0,0,0-1.75.21,42.26,42.26,0,0,1-17.68,10.22A1.47,1.47,0,0,0,296,151.6v12.83a2.76,2.76,0,0,1-2.75,2.75H277.53a2.76,2.76,0,0,1-2.75-2.75V151.6a1.47,1.47,0,0,0-1.13-1.43,42,42,0,0,1-9.38-4A42.45,42.45,0,0,1,256,140a1.47,1.47,0,0,0-1.83-.17l-11,6.38a2.78,2.78,0,0,1-3.77-1l0-.08-7.83-13.56h0a2.78,2.78,0,0,1,1-3.76l11.12-6.42a1.47,1.47,0,0,0,.69-1.62h0a42.64,42.64,0,0,1,0-20.43,1.47,1.47,0,0,0-.78-1.67l-11-6.37a2.78,2.78,0,0,1-1-3.76l0-.08,7.83-13.56h0a2.78,2.78,0,0,1,3.77-1h0l11.13,6.42a1.47,1.47,0,0,0,1.79-.24,42.55,42.55,0,0,1,8.2-6.18,42,42,0,0,1,9.44-4,1.47,1.47,0,0,0,1.07-1.41V54.58a2.76,2.76,0,0,1,2.75-2.75h15.75A2.76,2.76,0,0,1,296,54.58V67.42A1.47,1.47,0,0,0,297.16,68.85Z" transform="translate(-28.74)"/><path class="cls-7" d="M315.21,140ZM302.76,92.58a23.94,23.94,0,1,0,7,16.93,23.87,23.87,0,0,0-7-16.93Zm-5.17-23.73a42,42,0,0,1,9.38,4A42.51,42.51,0,0,1,315.2,79a1.47,1.47,0,0,0,1.75.21l11.13-6.42.06,0a2.78,2.78,0,0,1,3.7,1l0,.08,7.83,13.56a2.78,2.78,0,0,1-1,3.77l-.08,0-11,6.37a1.47,1.47,0,0,0-.69,1.62h0a42.44,42.44,0,0,1,1.24,10.22,42.66,42.66,0,0,1-.31,5.16,42.18,42.18,0,0,1-.93,5.06,1.47,1.47,0,0,0,.78,1.67l11,6.37h0a2.78,2.78,0,0,1,1,3.77l-7.87,13.63h0a2.77,2.77,0,0,1-3.76,1l-.08,0-11-6.38a1.47,1.47,0,0,0-1.75.21,42.26,42.26,0,0,1-17.68,10.22,1.47,1.47,0,0,0-1.07,1.41v12.83a2.76,2.76,0,0,1-2.75,2.75H278a2.77,2.77,0,0,1-2.75-2.75V151.6a1.47,1.47,0,0,0-1.13-1.43,42,42,0,0,1-9.38-4,42.43,42.43,0,0,1-8.23-6.21,1.47,1.47,0,0,0-1.83-.17l-11,6.38a2.78,2.78,0,0,1-3.77-1l0-.08-7.83-13.56h0a2.78,2.78,0,0,1,1-3.76l11.12-6.42a1.47,1.47,0,0,0,.69-1.62h0a42.64,42.64,0,0,1,0-20.43,1.47,1.47,0,0,0-.78-1.67l-11-6.37a2.78,2.78,0,0,1-1-3.76l0-.08,7.83-13.56h0a2.78,2.78,0,0,1,3.77-1h0l11.13,6.42a1.47,1.47,0,0,0,1.79-.24,42.57,42.57,0,0,1,8.2-6.18,42,42,0,0,1,9.44-4,1.47,1.47,0,0,0,1.07-1.41V54.58A2.77,2.77,0,0,1,278,51.83H293.7a2.76,2.76,0,0,1,2.75,2.75V67.42A1.47,1.47,0,0,0,297.59,68.85Z" transform="translate(-28.74)"/><path class="cls-7" d="M315.63,140ZM303.19,92.58a23.94,23.94,0,1,0,7,16.93,23.87,23.87,0,0,0-7-16.93ZM298,68.85a42,42,0,0,1,9.38,4A42.53,42.53,0,0,1,315.63,79a1.47,1.47,0,0,0,1.75.21l11.13-6.42.06,0a2.78,2.78,0,0,1,3.71,1l0,.08,7.83,13.56a2.78,2.78,0,0,1-1,3.77l-.08,0-11,6.37a1.47,1.47,0,0,0-.69,1.62h0a42.62,42.62,0,0,1,0,20.43,1.47,1.47,0,0,0,.78,1.67l11,6.37h0a2.78,2.78,0,0,1,1,3.77l-7.87,13.63h0a2.77,2.77,0,0,1-3.76,1l-.08,0-11-6.38a1.47,1.47,0,0,0-1.75.21,42.48,42.48,0,0,1-8.23,6.2,42,42,0,0,1-9.45,4,1.47,1.47,0,0,0-1.07,1.41v12.83a2.76,2.76,0,0,1-2.75,2.75H278.38a2.76,2.76,0,0,1-2.75-2.75V151.6a1.47,1.47,0,0,0-1.13-1.43,42,42,0,0,1-9.38-4,42.43,42.43,0,0,1-8.23-6.21,1.47,1.47,0,0,0-1.83-.17l-11,6.38a2.78,2.78,0,0,1-3.77-1l0-.08-7.83-13.56h0a2.78,2.78,0,0,1,1-3.76l11.12-6.42a1.47,1.47,0,0,0,.69-1.62h0a42.48,42.48,0,0,1-1.24-10.22,42.7,42.7,0,0,1,.31-5.16,42.09,42.09,0,0,1,.93-5.06,1.47,1.47,0,0,0-.78-1.67l-11-6.37a2.78,2.78,0,0,1-1-3.76l0-.08,7.83-13.56h0a2.78,2.78,0,0,1,3.77-1h0l11.13,6.42a1.47,1.47,0,0,0,1.79-.24,42.57,42.57,0,0,1,8.2-6.18,42,42,0,0,1,9.44-4,1.47,1.47,0,0,0,1.07-1.41V54.58a2.76,2.76,0,0,1,2.75-2.75h15.75a2.76,2.76,0,0,1,2.75,2.75V67.42A1.47,1.47,0,0,0,298,68.85Z" transform="translate(-28.74)"/><path class="cls-7" d="M316.06,140ZM303.61,92.58a23.94,23.94,0,1,0,7,16.93,23.87,23.87,0,0,0-7-16.93Zm-5.17-23.73a42,42,0,0,1,9.38,4A42.53,42.53,0,0,1,316.06,79a1.47,1.47,0,0,0,1.75.21l11.13-6.42.06,0a2.78,2.78,0,0,1,3.71,1l0,.08,7.83,13.56a2.78,2.78,0,0,1-1,3.77l-.08,0-11,6.37a1.47,1.47,0,0,0-.69,1.62h0a42.21,42.21,0,0,1,.93,5.06,42.59,42.59,0,0,1-.93,15.38,1.47,1.47,0,0,0,.78,1.67l11,6.37h0a2.78,2.78,0,0,1,1,3.77l-7.87,13.63h0a2.77,2.77,0,0,1-3.77,1l-.08,0-11-6.38a1.47,1.47,0,0,0-1.75.21,42.46,42.46,0,0,1-8.23,6.2,42,42,0,0,1-9.45,4,1.47,1.47,0,0,0-1.07,1.41v12.83a2.76,2.76,0,0,1-2.75,2.75H278.81a2.77,2.77,0,0,1-2.75-2.75V151.6a1.47,1.47,0,0,0-1.13-1.43,42,42,0,0,1-9.38-4,42.46,42.46,0,0,1-8.23-6.21,1.47,1.47,0,0,0-1.83-.17l-11,6.38a2.78,2.78,0,0,1-3.77-1l0-.08-7.83-13.56h0a2.78,2.78,0,0,1,1-3.76l11.12-6.42a1.47,1.47,0,0,0,.69-1.62h0a42.1,42.1,0,0,1-.93-5.06,42.94,42.94,0,0,1,0-10.32,42,42,0,0,1,.93-5.06,1.47,1.47,0,0,0-.78-1.67l-11-6.37a2.78,2.78,0,0,1-1-3.76l0-.08,7.83-13.56h0a2.78,2.78,0,0,1,3.77-1h0l11.13,6.42a1.47,1.47,0,0,0,1.79-.24,42.55,42.55,0,0,1,8.2-6.18,42.05,42.05,0,0,1,9.44-4,1.47,1.47,0,0,0,1.07-1.41V54.58a2.77,2.77,0,0,1,2.75-2.75h15.75a2.76,2.76,0,0,1,2.75,2.75V67.42A1.47,1.47,0,0,0,298.44,68.85Z" transform="translate(-28.74)"/><path class="cls-7" d="M316.48,140ZM304,92.58a23.94,23.94,0,1,0,7,16.93,23.87,23.87,0,0,0-7-16.93Zm-5.17-23.73a41.94,41.94,0,0,1,9.38,4A42.53,42.53,0,0,1,316.48,79a1.47,1.47,0,0,0,1.75.21l11.13-6.42.06,0a2.78,2.78,0,0,1,3.71,1l0,.08L341,87.48a2.78,2.78,0,0,1-1,3.77l-.08,0-11,6.37a1.47,1.47,0,0,0-.69,1.62h0a42.6,42.6,0,0,1,0,20.43,1.47,1.47,0,0,0,.78,1.67l11,6.37h0a2.78,2.78,0,0,1,1,3.77l-7.87,13.63h0a2.77,2.77,0,0,1-3.77,1l-.08,0-11-6.38a1.47,1.47,0,0,0-1.75.21,42.48,42.48,0,0,1-8.23,6.2,42,42,0,0,1-9.45,4,1.47,1.47,0,0,0-1.07,1.41v12.83a2.76,2.76,0,0,1-2.75,2.75H279.23a2.76,2.76,0,0,1-2.75-2.75V151.6a1.47,1.47,0,0,0-1.13-1.43A42.24,42.24,0,0,1,257.73,140a1.47,1.47,0,0,0-1.83-.17l-11,6.38a2.78,2.78,0,0,1-3.77-1l0-.08-7.83-13.56h0a2.78,2.78,0,0,1,1-3.76l11.12-6.42a1.47,1.47,0,0,0,.69-1.62h0a42.62,42.62,0,0,1,0-20.43,1.47,1.47,0,0,0-.78-1.67l-11-6.37a2.78,2.78,0,0,1-1-3.76l0-.08,7.83-13.56h0a2.78,2.78,0,0,1,3.77-1h0L256,79.26a1.47,1.47,0,0,0,1.79-.24,42.52,42.52,0,0,1,8.2-6.18,42,42,0,0,1,9.44-4,1.47,1.47,0,0,0,1.07-1.41V54.58a2.76,2.76,0,0,1,2.75-2.75H295a2.76,2.76,0,0,1,2.75,2.75V67.42A1.47,1.47,0,0,0,298.87,68.85Z" transform="translate(-28.74)"/><path class="cls-7" d="M316.91,140ZM304.46,92.58a23.94,23.94,0,1,0,7,16.93,23.86,23.86,0,0,0-7-16.93Zm-5.17-23.73a42,42,0,0,1,9.38,4A42.51,42.51,0,0,1,316.91,79a1.47,1.47,0,0,0,1.75.21l11.13-6.42.06,0a2.78,2.78,0,0,1,3.7,1l0,.08,7.83,13.56a2.78,2.78,0,0,1-1,3.77l-.08,0-11,6.37a1.47,1.47,0,0,0-.69,1.62h0a42.15,42.15,0,0,1,.93,5.06,42.61,42.61,0,0,1-.93,15.38,1.47,1.47,0,0,0,.78,1.67l11,6.37h0a2.78,2.78,0,0,1,1,3.77l-7.87,13.63h0a2.77,2.77,0,0,1-3.76,1l-.08,0-11-6.38a1.47,1.47,0,0,0-1.75.21,42.26,42.26,0,0,1-17.68,10.22,1.47,1.47,0,0,0-1.07,1.41v12.83a2.76,2.76,0,0,1-2.75,2.75H279.66a2.77,2.77,0,0,1-2.75-2.75V151.6a1.47,1.47,0,0,0-1.13-1.43,42,42,0,0,1-9.38-4,42.42,42.42,0,0,1-8.23-6.21,1.47,1.47,0,0,0-1.83-.17l-11,6.38a2.78,2.78,0,0,1-3.77-1l0-.08-7.83-13.56h0a2.78,2.78,0,0,1,1-3.76l11.12-6.42a1.47,1.47,0,0,0,.69-1.62h0a42.28,42.28,0,0,1-.93-5.06,42.94,42.94,0,0,1,0-10.32,42.21,42.21,0,0,1,.93-5.06,1.47,1.47,0,0,0-.78-1.67l-11-6.37a2.78,2.78,0,0,1-1-3.76l0-.08,7.83-13.56h0a2.78,2.78,0,0,1,3.77-1h0l11.13,6.42a1.47,1.47,0,0,0,1.79-.24,42.54,42.54,0,0,1,8.2-6.18,42,42,0,0,1,9.44-4,1.47,1.47,0,0,0,1.07-1.41V54.58a2.77,2.77,0,0,1,2.75-2.75h15.75a2.76,2.76,0,0,1,2.75,2.75V67.42A1.47,1.47,0,0,0,299.29,68.85Z" transform="translate(-28.74)"/><path class="cls-7" d="M317.34,140ZM304.89,92.58a23.94,23.94,0,1,0,7,16.93,23.86,23.86,0,0,0-7-16.93Zm-5.17-23.73a42,42,0,0,1,9.38,4A42.56,42.56,0,0,1,317.33,79a1.47,1.47,0,0,0,1.75.21l11.13-6.42.06,0a2.78,2.78,0,0,1,3.7,1l0,.08,7.83,13.56a2.78,2.78,0,0,1-1,3.77l-.07,0-11,6.37a1.47,1.47,0,0,0-.69,1.62h0a42.15,42.15,0,0,1,.93,5.06,42.61,42.61,0,0,1-.93,15.38,1.47,1.47,0,0,0,.78,1.67l11,6.37h0a2.78,2.78,0,0,1,1,3.77L334,145.17h0a2.77,2.77,0,0,1-3.76,1l-.08,0-11-6.38a1.47,1.47,0,0,0-1.75.21,42.48,42.48,0,0,1-8.23,6.2,42.05,42.05,0,0,1-9.45,4,1.47,1.47,0,0,0-1.07,1.41v12.83a2.76,2.76,0,0,1-2.75,2.75H280.09a2.77,2.77,0,0,1-2.75-2.75V151.6a1.47,1.47,0,0,0-1.13-1.43,42,42,0,0,1-9.38-4,42.44,42.44,0,0,1-8.23-6.21,1.47,1.47,0,0,0-1.83-.17l-11,6.38a2.78,2.78,0,0,1-3.77-1l0-.08-7.83-13.56h0a2.78,2.78,0,0,1,1-3.76l11.12-6.42a1.47,1.47,0,0,0,.69-1.62h0a42.16,42.16,0,0,1-.93-5.06,42.86,42.86,0,0,1,0-10.32,42.09,42.09,0,0,1,.93-5.06,1.47,1.47,0,0,0-.78-1.67l-11-6.37a2.78,2.78,0,0,1-1-3.76l0-.08,7.83-13.56h0a2.78,2.78,0,0,1,3.77-1h0l11.13,6.42a1.47,1.47,0,0,0,1.79-.24,42.53,42.53,0,0,1,8.2-6.18,42,42,0,0,1,9.44-4,1.47,1.47,0,0,0,1.07-1.41V54.58a2.77,2.77,0,0,1,2.75-2.75h15.75a2.76,2.76,0,0,1,2.75,2.75V67.42A1.47,1.47,0,0,0,299.72,68.85Z" transform="translate(-28.74)"/><path class="cls-7" d="M317.76,140ZM305.32,92.58a23.94,23.94,0,1,0,7,16.93,23.86,23.86,0,0,0-7-16.93Zm-5.17-23.73a42,42,0,0,1,9.38,4A42.51,42.51,0,0,1,317.76,79a1.47,1.47,0,0,0,1.75.21l11.12-6.42.06,0a2.78,2.78,0,0,1,3.71,1l0,.08,7.83,13.56a2.78,2.78,0,0,1-1,3.77l-.08,0-11,6.37a1.47,1.47,0,0,0-.69,1.62h0a42.59,42.59,0,0,1,0,20.43,1.47,1.47,0,0,0,.78,1.67l11,6.37h0a2.78,2.78,0,0,1,1,3.77l-7.87,13.63h0a2.77,2.77,0,0,1-3.76,1l-.08,0-11-6.38a1.47,1.47,0,0,0-1.75.21,42.26,42.26,0,0,1-17.68,10.22A1.47,1.47,0,0,0,299,151.6v12.83a2.77,2.77,0,0,1-2.75,2.75H280.51a2.76,2.76,0,0,1-2.75-2.75V151.6a1.47,1.47,0,0,0-1.13-1.43,42,42,0,0,1-9.38-4A42.42,42.42,0,0,1,259,140a1.47,1.47,0,0,0-1.83-.17l-11.05,6.38a2.78,2.78,0,0,1-3.77-1l0-.08-7.83-13.56h0a2.78,2.78,0,0,1,1-3.76l11.12-6.42a1.47,1.47,0,0,0,.69-1.62h0a42.64,42.64,0,0,1,0-20.43,1.47,1.47,0,0,0-.78-1.67l-11-6.37a2.78,2.78,0,0,1-1-3.76l0-.08,7.83-13.56h0a2.78,2.78,0,0,1,3.77-1h0l11.13,6.42A1.47,1.47,0,0,0,259,79a42.54,42.54,0,0,1,8.2-6.18,42,42,0,0,1,9.44-4,1.47,1.47,0,0,0,1.07-1.41V54.58a2.76,2.76,0,0,1,2.75-2.75h15.75A2.77,2.77,0,0,1,299,54.58V67.42A1.47,1.47,0,0,0,300.14,68.85Z" transform="translate(-28.74)"/><path class="cls-7" d="M318.19,140ZM305.74,92.58a23.94,23.94,0,1,0,7,16.93,23.86,23.86,0,0,0-7-16.93Zm-5.17-23.73a42,42,0,0,1,9.38,4A42.51,42.51,0,0,1,318.19,79a1.47,1.47,0,0,0,1.75.21l11.13-6.42.06,0a2.78,2.78,0,0,1,3.7,1l0,.08,7.83,13.56a2.78,2.78,0,0,1-1,3.77l-.07,0-11,6.37a1.47,1.47,0,0,0-.69,1.62h0a42.13,42.13,0,0,1,.93,5.06,42.59,42.59,0,0,1-.93,15.38,1.47,1.47,0,0,0,.78,1.67l11,6.37h0a2.78,2.78,0,0,1,1,3.77l-7.87,13.63h0a2.77,2.77,0,0,1-3.76,1l-.08,0-11-6.38a1.47,1.47,0,0,0-1.75.21,42.26,42.26,0,0,1-17.68,10.22,1.47,1.47,0,0,0-1.07,1.41v12.83a2.76,2.76,0,0,1-2.75,2.75H280.94a2.76,2.76,0,0,1-2.75-2.75V151.6a1.47,1.47,0,0,0-1.13-1.43,42,42,0,0,1-9.38-4,42.44,42.44,0,0,1-8.23-6.21,1.47,1.47,0,0,0-1.83-.17l-11,6.38a2.78,2.78,0,0,1-3.77-1l0-.08-7.83-13.56h0a2.78,2.78,0,0,1,1-3.76L247,121.35a1.47,1.47,0,0,0,.69-1.62h0a42.2,42.2,0,0,1-.93-5.06,42.88,42.88,0,0,1,0-10.32,42.13,42.13,0,0,1,.93-5.06,1.47,1.47,0,0,0-.78-1.67l-11-6.37a2.78,2.78,0,0,1-1-3.76l0-.08,7.83-13.56h0a2.78,2.78,0,0,1,3.77-1h0l11.12,6.42a1.47,1.47,0,0,0,1.79-.24,42.56,42.56,0,0,1,8.2-6.18,42,42,0,0,1,9.44-4,1.47,1.47,0,0,0,1.07-1.41V54.58a2.76,2.76,0,0,1,2.75-2.75h15.75a2.76,2.76,0,0,1,2.75,2.75V67.42A1.47,1.47,0,0,0,300.57,68.85Z" transform="translate(-28.74)"/><path class="cls-7" d="M318.61,140ZM306.17,92.58a23.94,23.94,0,1,0,7,16.93,23.87,23.87,0,0,0-7-16.93ZM301,68.85a42,42,0,0,1,9.38,4A42.53,42.53,0,0,1,318.61,79a1.47,1.47,0,0,0,1.75.21l11.12-6.42.06,0a2.78,2.78,0,0,1,3.7,1l0,.08,7.83,13.56a2.78,2.78,0,0,1-1,3.77l-.08,0-11,6.37a1.47,1.47,0,0,0-.69,1.62h0a42.58,42.58,0,0,1,0,20.43,1.47,1.47,0,0,0,.78,1.67l11,6.37h0a2.78,2.78,0,0,1,1,3.77l-7.87,13.63h0a2.77,2.77,0,0,1-3.76,1l-.08,0-11-6.38a1.47,1.47,0,0,0-1.75.21,42.47,42.47,0,0,1-8.23,6.2,42,42,0,0,1-9.45,4,1.47,1.47,0,0,0-1.07,1.41v12.83a2.76,2.76,0,0,1-2.75,2.75H281.36a2.77,2.77,0,0,1-2.75-2.75V151.6a1.47,1.47,0,0,0-1.13-1.43,42,42,0,0,1-9.38-4,42.43,42.43,0,0,1-8.23-6.21,1.47,1.47,0,0,0-1.83-.17l-11,6.38a2.78,2.78,0,0,1-3.77-1l0-.08-7.83-13.56h0a2.78,2.78,0,0,1,1-3.76l11.11-6.42a1.47,1.47,0,0,0,.69-1.62h0a42.36,42.36,0,0,1-.93-5.06,42.94,42.94,0,0,1,0-10.32,42.29,42.29,0,0,1,.93-5.06,1.47,1.47,0,0,0-.78-1.67l-11-6.37a2.78,2.78,0,0,1-1-3.76l0-.08,7.83-13.56h0a2.78,2.78,0,0,1,3.77-1h0l11.13,6.42A1.47,1.47,0,0,0,259.9,79a42.54,42.54,0,0,1,8.2-6.18,42,42,0,0,1,9.44-4,1.47,1.47,0,0,0,1.07-1.41V54.58a2.77,2.77,0,0,1,2.75-2.75h15.75a2.76,2.76,0,0,1,2.75,2.75V67.42A1.47,1.47,0,0,0,301,68.85Z" transform="translate(-28.74)"/><path class="cls-7" d="M319,140ZM306.59,92.58a23.94,23.94,0,1,0,7,16.93,23.87,23.87,0,0,0-7-16.93Zm-5.17-23.73a42,42,0,0,1,9.38,4A42.55,42.55,0,0,1,319,79a1.47,1.47,0,0,0,1.75.21l11.13-6.42.06,0a2.78,2.78,0,0,1,3.71,1l0,.08,7.83,13.56a2.78,2.78,0,0,1-1,3.77l-.08,0-11,6.37a1.47,1.47,0,0,0-.69,1.62h0a42.15,42.15,0,0,1,.93,5.06,42.61,42.61,0,0,1-.93,15.38,1.47,1.47,0,0,0,.78,1.67l11,6.37h0a2.78,2.78,0,0,1,1,3.77l-7.87,13.63h0a2.77,2.77,0,0,1-3.77,1l-.08,0-11-6.38A1.47,1.47,0,0,0,319,140a42.48,42.48,0,0,1-8.23,6.2,42,42,0,0,1-9.45,4,1.47,1.47,0,0,0-1.07,1.41v12.83a2.76,2.76,0,0,1-2.75,2.75H281.79a2.76,2.76,0,0,1-2.75-2.75V151.6a1.47,1.47,0,0,0-1.13-1.43,42,42,0,0,1-9.38-4,42.43,42.43,0,0,1-8.23-6.21,1.47,1.47,0,0,0-1.83-.17l-11,6.38a2.78,2.78,0,0,1-3.77-1l0-.08-7.83-13.56h0a2.78,2.78,0,0,1,1-3.76l11.12-6.42a1.47,1.47,0,0,0,.69-1.62h0a42.65,42.65,0,0,1,0-20.43,1.47,1.47,0,0,0-.78-1.67l-11-6.37a2.78,2.78,0,0,1-1-3.76l0-.08,7.83-13.56h0a2.78,2.78,0,0,1,3.77-1h0l11.13,6.42a1.47,1.47,0,0,0,1.79-.24,42.56,42.56,0,0,1,8.2-6.18,42,42,0,0,1,9.44-4A1.47,1.47,0,0,0,279,67.42V54.58a2.76,2.76,0,0,1,2.75-2.75h15.75a2.76,2.76,0,0,1,2.75,2.75V67.42A1.47,1.47,0,0,0,301.42,68.85Z" transform="translate(-28.74)"/><path class="cls-7" d="M319.47,140ZM307,92.58a23.94,23.94,0,1,0,7,16.93,23.87,23.87,0,0,0-7-16.93Zm-5.17-23.73a42,42,0,0,1,9.38,4A42.52,42.52,0,0,1,319.47,79a1.47,1.47,0,0,0,1.75.21l11.13-6.42.06,0a2.78,2.78,0,0,1,3.71,1l0,.08L344,87.48a2.78,2.78,0,0,1-1,3.77l-.08,0-11,6.37a1.47,1.47,0,0,0-.69,1.62h0a42.61,42.61,0,0,1,0,20.43,1.47,1.47,0,0,0,.78,1.67l11,6.37h0a2.78,2.78,0,0,1,1,3.77l-7.87,13.63h0a2.77,2.77,0,0,1-3.76,1l-.08,0-11-6.38a1.47,1.47,0,0,0-1.75.21,42.26,42.26,0,0,1-17.68,10.22,1.47,1.47,0,0,0-1.07,1.41v12.83a2.76,2.76,0,0,1-2.75,2.75H282.22a2.76,2.76,0,0,1-2.75-2.75V151.6a1.47,1.47,0,0,0-1.13-1.43,42,42,0,0,1-9.38-4,42.43,42.43,0,0,1-8.23-6.21,1.47,1.47,0,0,0-1.83-.17l-11,6.38a2.78,2.78,0,0,1-3.77-1l0-.08-7.83-13.56h0a2.78,2.78,0,0,1,1-3.76l11.11-6.42a1.47,1.47,0,0,0,.69-1.62h0a42.62,42.62,0,0,1,0-20.43,1.47,1.47,0,0,0-.78-1.67l-11-6.37a2.78,2.78,0,0,1-1-3.76l0-.08,7.83-13.56h0a2.78,2.78,0,0,1,3.77-1h0L259,79.26a1.47,1.47,0,0,0,1.79-.24,42.54,42.54,0,0,1,8.2-6.18,42,42,0,0,1,9.44-4,1.47,1.47,0,0,0,1.07-1.41V54.58a2.76,2.76,0,0,1,2.75-2.75H298a2.76,2.76,0,0,1,2.75,2.75V67.42A1.47,1.47,0,0,0,301.85,68.85Z" transform="translate(-28.74)"/><path class="cls-7" d="M319.89,140ZM307.45,92.58a23.94,23.94,0,1,0,7,16.93,23.87,23.87,0,0,0-7-16.93Zm-5.17-23.73a42,42,0,0,1,9.38,4A42.51,42.51,0,0,1,319.89,79a1.47,1.47,0,0,0,1.75.21l11.13-6.42.06,0a2.78,2.78,0,0,1,3.7,1l0,.08,7.83,13.56a2.78,2.78,0,0,1-1,3.77l-.08,0-11,6.37a1.47,1.47,0,0,0-.69,1.62h0a42.62,42.62,0,0,1,0,20.43,1.47,1.47,0,0,0,.78,1.67l11,6.37h0a2.78,2.78,0,0,1,1,3.77l-7.87,13.63h0a2.77,2.77,0,0,1-3.76,1l-.08,0-11-6.38a1.47,1.47,0,0,0-1.75.21,42.46,42.46,0,0,1-8.23,6.2,42,42,0,0,1-9.45,4,1.47,1.47,0,0,0-1.07,1.41v12.83a2.76,2.76,0,0,1-2.75,2.75H282.64a2.76,2.76,0,0,1-2.75-2.75V151.6a1.47,1.47,0,0,0-1.13-1.43,42,42,0,0,1-9.38-4,42.44,42.44,0,0,1-8.23-6.21,1.47,1.47,0,0,0-1.83-.17l-11,6.38a2.78,2.78,0,0,1-3.77-1l0-.08-7.83-13.56h0a2.78,2.78,0,0,1,1-3.76l11.12-6.42a1.47,1.47,0,0,0,.69-1.62h0a42.1,42.1,0,0,1-.93-5.06,42.94,42.94,0,0,1,0-10.32,42,42,0,0,1,.93-5.06,1.47,1.47,0,0,0-.78-1.67l-11-6.37a2.78,2.78,0,0,1-1-3.76l0-.08,7.83-13.56h0a2.78,2.78,0,0,1,3.77-1h0l11.13,6.42a1.47,1.47,0,0,0,1.79-.24,42.57,42.57,0,0,1,8.2-6.18,42.05,42.05,0,0,1,9.44-4,1.47,1.47,0,0,0,1.07-1.41V54.58a2.76,2.76,0,0,1,2.75-2.75h15.75a2.76,2.76,0,0,1,2.75,2.75V67.42A1.47,1.47,0,0,0,302.27,68.85Z" transform="translate(-28.74)"/><path class="cls-7" d="M320.32,140ZM307.87,92.58a23.94,23.94,0,1,0,7,16.93,23.87,23.87,0,0,0-7-16.93ZM302.7,68.85a42,42,0,0,1,9.38,4A42.54,42.54,0,0,1,320.32,79a1.47,1.47,0,0,0,1.75.21l11.13-6.42.06,0a2.78,2.78,0,0,1,3.7,1l0,.08,7.83,13.56a2.78,2.78,0,0,1-1,3.77l-.08,0-11,6.37a1.47,1.47,0,0,0-.69,1.62h0a42.6,42.6,0,0,1,0,20.43,1.47,1.47,0,0,0,.78,1.67l11,6.37h0a2.78,2.78,0,0,1,1,3.77L337,145.17h0a2.77,2.77,0,0,1-3.76,1l-.08,0-11-6.38a1.47,1.47,0,0,0-1.75.21,42.48,42.48,0,0,1-8.23,6.2,42,42,0,0,1-9.45,4,1.47,1.47,0,0,0-1.07,1.41v12.83a2.76,2.76,0,0,1-2.75,2.75H283.07a2.77,2.77,0,0,1-2.75-2.75V151.6a1.47,1.47,0,0,0-1.13-1.43,42,42,0,0,1-9.38-4,42.42,42.42,0,0,1-8.23-6.21,1.47,1.47,0,0,0-1.83-.17l-11,6.38a2.78,2.78,0,0,1-3.77-1l0-.08L237,131.53h0a2.78,2.78,0,0,1,1-3.76l11.12-6.42a1.47,1.47,0,0,0,.69-1.62h0a42.26,42.26,0,0,1-.93-5.06,42.94,42.94,0,0,1,0-10.32,42.19,42.19,0,0,1,.93-5.06,1.47,1.47,0,0,0-.78-1.67l-11-6.37a2.78,2.78,0,0,1-1-3.76l0-.08,7.83-13.56h0a2.78,2.78,0,0,1,3.77-1h0l11.13,6.42A1.47,1.47,0,0,0,261.6,79a42.52,42.52,0,0,1,8.2-6.18,42,42,0,0,1,9.44-4,1.47,1.47,0,0,0,1.07-1.41V54.58a2.77,2.77,0,0,1,2.75-2.75h15.75a2.76,2.76,0,0,1,2.75,2.75V67.42A1.47,1.47,0,0,0,302.7,68.85Z" transform="translate(-28.74)"/><path class="cls-7" d="M320.75,140ZM308.3,92.58a23.94,23.94,0,1,0,7,16.93,23.86,23.86,0,0,0-7-16.93Zm-5.17-23.73a42,42,0,0,1,9.38,4A42.54,42.54,0,0,1,320.74,79a1.47,1.47,0,0,0,1.75.21l11.13-6.42.06,0a2.78,2.78,0,0,1,3.7,1l0,.08,7.83,13.56a2.78,2.78,0,0,1-1,3.77l-.08,0-11,6.37a1.47,1.47,0,0,0-.69,1.62h0a42.13,42.13,0,0,1,.93,5.06,42.61,42.61,0,0,1-.93,15.38,1.47,1.47,0,0,0,.78,1.67l11,6.37h0a2.78,2.78,0,0,1,1,3.77l-7.87,13.63h0a2.77,2.77,0,0,1-3.76,1l-.08,0-11-6.38a1.47,1.47,0,0,0-1.75.21,42.46,42.46,0,0,1-8.23,6.2,42,42,0,0,1-9.45,4A1.47,1.47,0,0,0,302,151.6v12.83a2.76,2.76,0,0,1-2.75,2.75H283.49a2.77,2.77,0,0,1-2.75-2.75V151.6a1.47,1.47,0,0,0-1.13-1.43,42,42,0,0,1-9.38-4A42.45,42.45,0,0,1,262,140a1.47,1.47,0,0,0-1.83-.17l-11,6.38a2.78,2.78,0,0,1-3.77-1l0-.08-7.83-13.56h0a2.78,2.78,0,0,1,1-3.76l11.12-6.42a1.47,1.47,0,0,0,.69-1.62h0a42.08,42.08,0,0,1-.93-5.06,42.94,42.94,0,0,1,0-10.32,42,42,0,0,1,.93-5.06,1.47,1.47,0,0,0-.78-1.67l-11-6.37a2.78,2.78,0,0,1-1-3.76l0-.08,7.83-13.56h0a2.78,2.78,0,0,1,3.77-1h0l11.13,6.42A1.47,1.47,0,0,0,262,79a42.55,42.55,0,0,1,8.2-6.18,42.05,42.05,0,0,1,9.44-4,1.47,1.47,0,0,0,1.07-1.41V54.58a2.77,2.77,0,0,1,2.75-2.75h15.75A2.76,2.76,0,0,1,302,54.58V67.42A1.47,1.47,0,0,0,303.13,68.85Z" transform="translate(-28.74)"/><path class="cls-7" d="M321.17,140ZM308.72,92.58a23.94,23.94,0,1,0,7,16.93,23.87,23.87,0,0,0-7-16.93Zm-5.17-23.73a42,42,0,0,1,9.38,4A42.51,42.51,0,0,1,321.17,79a1.47,1.47,0,0,0,1.75.21L334,72.84l.06,0a2.78,2.78,0,0,1,3.7,1l0,.08,7.83,13.56a2.78,2.78,0,0,1-1,3.77l-.08,0-11,6.37a1.47,1.47,0,0,0-.69,1.62h0a42.61,42.61,0,0,1,0,20.43,1.47,1.47,0,0,0,.78,1.67l11,6.37h0a2.78,2.78,0,0,1,1,3.77l-7.87,13.63h0a2.77,2.77,0,0,1-3.77,1l-.08,0-11-6.38a1.47,1.47,0,0,0-1.75.21,42.26,42.26,0,0,1-17.68,10.22,1.47,1.47,0,0,0-1.07,1.41v12.83a2.76,2.76,0,0,1-2.75,2.75H283.92a2.76,2.76,0,0,1-2.75-2.75V151.6a1.47,1.47,0,0,0-1.13-1.43,42,42,0,0,1-9.38-4,42.41,42.41,0,0,1-8.23-6.21,1.47,1.47,0,0,0-1.83-.17l-11,6.38a2.78,2.78,0,0,1-3.77-1l0-.08-7.83-13.56h0a2.78,2.78,0,0,1,1-3.76L250,121.35a1.47,1.47,0,0,0,.69-1.62h0a42.65,42.65,0,0,1,0-20.43,1.47,1.47,0,0,0-.78-1.67l-11-6.37a2.78,2.78,0,0,1-1-3.76l0-.08,7.83-13.56h0a2.78,2.78,0,0,1,3.77-1h0l11.13,6.42a1.47,1.47,0,0,0,1.79-.24,42.54,42.54,0,0,1,8.2-6.18,42,42,0,0,1,9.44-4,1.47,1.47,0,0,0,1.07-1.41V54.58a2.76,2.76,0,0,1,2.75-2.75h15.75a2.76,2.76,0,0,1,2.75,2.75V67.42A1.47,1.47,0,0,0,303.55,68.85Z" transform="translate(-28.74)"/><path class="cls-7" d="M321.6,140ZM309.15,92.58a23.94,23.94,0,1,0,7,16.93,23.87,23.87,0,0,0-7-16.93ZM304,68.85a42,42,0,0,1,9.38,4A42.51,42.51,0,0,1,321.6,79a1.47,1.47,0,0,0,1.75.21l11.13-6.42.06,0a2.78,2.78,0,0,1,3.7,1l0,.08,7.83,13.56a2.78,2.78,0,0,1-1,3.77l-.08,0-11,6.37a1.47,1.47,0,0,0-.69,1.62h0a42.15,42.15,0,0,1,.93,5.06,43,43,0,0,1,0,10.32,42.18,42.18,0,0,1-.93,5.06,1.47,1.47,0,0,0,.78,1.67l11,6.37h0a2.78,2.78,0,0,1,1,3.77l-7.87,13.63h0a2.77,2.77,0,0,1-3.77,1l-.08,0-11-6.38a1.47,1.47,0,0,0-1.75.21,42.26,42.26,0,0,1-17.68,10.22,1.47,1.47,0,0,0-1.07,1.41v12.83a2.76,2.76,0,0,1-2.75,2.75H284.35a2.77,2.77,0,0,1-2.75-2.75V151.6a1.47,1.47,0,0,0-1.13-1.43,42,42,0,0,1-9.38-4,42.46,42.46,0,0,1-8.23-6.21,1.47,1.47,0,0,0-1.83-.17l-11,6.38a2.78,2.78,0,0,1-3.77-1l0-.08-7.83-13.56h0a2.78,2.78,0,0,1,1-3.76l11.12-6.42a1.47,1.47,0,0,0,.69-1.62h0a42.2,42.2,0,0,1-.93-5.06,42.88,42.88,0,0,1,0-10.32,42.13,42.13,0,0,1,.93-5.06,1.47,1.47,0,0,0-.78-1.67l-11-6.37a2.78,2.78,0,0,1-1-3.76l0-.08,7.83-13.56h0a2.78,2.78,0,0,1,3.77-1h0l11.13,6.42a1.47,1.47,0,0,0,1.79-.24,42.56,42.56,0,0,1,8.2-6.18,42,42,0,0,1,9.44-4,1.47,1.47,0,0,0,1.07-1.41V54.58a2.77,2.77,0,0,1,2.75-2.75H300.1a2.76,2.76,0,0,1,2.75,2.75V67.42A1.47,1.47,0,0,0,304,68.85Z" transform="translate(-28.74)"/><path class="cls-7" d="M322,140ZM309.58,92.58a23.94,23.94,0,1,0,7,16.93,23.87,23.87,0,0,0-7-16.93Zm-5.17-23.73a42,42,0,0,1,9.38,4A42.5,42.5,0,0,1,322,79a1.47,1.47,0,0,0,1.75.21l11.12-6.42.06,0a2.78,2.78,0,0,1,3.7,1l0,.08,7.83,13.56a2.78,2.78,0,0,1-1,3.77l-.08,0-11,6.37a1.47,1.47,0,0,0-.69,1.62h0a42.25,42.25,0,0,1,.93,5.06,42.59,42.59,0,0,1-.93,15.38,1.47,1.47,0,0,0,.78,1.67l11,6.37h0a2.78,2.78,0,0,1,1,3.77l-7.87,13.63h0a2.77,2.77,0,0,1-3.76,1l-.08,0-11-6.38A1.47,1.47,0,0,0,322,140a42.48,42.48,0,0,1-8.23,6.2,42.06,42.06,0,0,1-9.45,4,1.47,1.47,0,0,0-1.07,1.41v12.83a2.76,2.76,0,0,1-2.75,2.75H284.77a2.77,2.77,0,0,1-2.75-2.75V151.6a1.47,1.47,0,0,0-1.13-1.43,42,42,0,0,1-9.38-4,42.45,42.45,0,0,1-8.23-6.21,1.47,1.47,0,0,0-1.83-.17l-11,6.38a2.78,2.78,0,0,1-3.77-1l0-.08-7.83-13.56h0a2.78,2.78,0,0,1,1-3.76l11.12-6.42a1.47,1.47,0,0,0,.69-1.62h0a42.36,42.36,0,0,1-.93-5.06,43,43,0,0,1,0-10.32,42.33,42.33,0,0,1,.93-5.06,1.47,1.47,0,0,0-.78-1.67l-11-6.37a2.78,2.78,0,0,1-1-3.76l0-.08,7.83-13.56h0a2.78,2.78,0,0,1,3.77-1h0l11.12,6.42A1.47,1.47,0,0,0,263.3,79a42.57,42.57,0,0,1,8.2-6.17,42,42,0,0,1,9.44-4A1.47,1.47,0,0,0,282,67.42V54.58a2.77,2.77,0,0,1,2.75-2.75h15.75a2.76,2.76,0,0,1,2.75,2.75V67.42A1.47,1.47,0,0,0,304.41,68.85Z" transform="translate(-28.74)"/><path class="cls-8" d="M313.07,140ZM300.63,92.58a23.94,23.94,0,1,0,7,16.93,23.86,23.86,0,0,0-7-16.93Zm-5.17-23.73a42,42,0,0,1,9.38,4A42.52,42.52,0,0,1,313.07,79a1.47,1.47,0,0,0,1.75.21L326,72.84l.06,0a2.78,2.78,0,0,1,3.7,1l0,.08,7.83,13.56a2.78,2.78,0,0,1-1,3.77l-.08,0-11,6.37a1.47,1.47,0,0,0-.69,1.62h0A42.51,42.51,0,0,1,326,109.51a42.46,42.46,0,0,1-1.24,10.22,1.47,1.47,0,0,0,.78,1.67l11,6.37h0a2.78,2.78,0,0,1,1,3.77l-7.87,13.63h0a2.77,2.77,0,0,1-3.76,1l-.08,0-11-6.38a1.47,1.47,0,0,0-1.75.21,42.5,42.5,0,0,1-8.23,6.2,42,42,0,0,1-9.45,4,1.47,1.47,0,0,0-1.07,1.41v12.83a2.76,2.76,0,0,1-2.75,2.75H275.82a2.77,2.77,0,0,1-2.75-2.75V151.6a1.47,1.47,0,0,0-1.13-1.43,42,42,0,0,1-9.38-4,42.47,42.47,0,0,1-8.23-6.21,1.47,1.47,0,0,0-1.83-.17l-11.05,6.38a2.78,2.78,0,0,1-3.77-1l0-.08-7.83-13.56h0a2.78,2.78,0,0,1,1-3.76l11.12-6.42a1.47,1.47,0,0,0,.69-1.62h0a42.62,42.62,0,0,1,0-20.43,1.47,1.47,0,0,0-.78-1.67l-11-6.37a2.78,2.78,0,0,1-1-3.76l0-.08,7.83-13.56h0a2.78,2.78,0,0,1,3.77-1h0l11.13,6.42a1.47,1.47,0,0,0,1.79-.24,42.57,42.57,0,0,1,8.2-6.17,42.05,42.05,0,0,1,9.44-4,1.47,1.47,0,0,0,1.07-1.41V54.58a2.77,2.77,0,0,1,2.75-2.75h15.75a2.76,2.76,0,0,1,2.75,2.75V67.42A1.47,1.47,0,0,0,295.46,68.85Z" transform="translate(-28.74)"/><path class="cls-9" d="M673.15,437.59H73.69a5.37,5.37,0,0,0-5.35,5.36h0a5.37,5.37,0,0,0,5.35,5.35h51.95a4,4,0,0,1,3.94,3.94h0a4,4,0,0,1-3.94,3.94H104a4.56,4.56,0,0,0-4.55,4.55h0a4.56,4.56,0,0,0,4.55,4.55H686.3a4.56,4.56,0,0,0,4.55-4.55h0a4.56,4.56,0,0,0-4.55-4.55H657.59a4,4,0,0,1-3.94-3.94h0a4,4,0,0,1,3.94-3.94h15.56a5.37,5.37,0,0,0,5.36-5.35h0a5.37,5.37,0,0,0-5.36-5.36Zm-614.92,0h.22a5.37,5.37,0,0,1,5.35,5.36h0a5.37,5.37,0,0,1-5.35,5.35h-.22a5.37,5.37,0,0,1-5.35-5.35h0A5.37,5.37,0,0,1,58.23,437.59Z" transform="translate(-28.74)"/><rect class="cls-10" x="282.52" y="382.34" width="125.72" height="46.07"/><rect class="cls-10" x="149.21" y="107.96" width="406.63" height="288.94" rx="6.37" ry="6.37"/><rect class="cls-11" x="139.49" y="107.96" width="406.63" height="288.94" rx="6.37" ry="6.37"/><path class="cls-12" d="M181.56,114.2h380a4.16,4.16,0,0,1,4.15,4.15v245a2.59,2.59,0,0,1-2.59,2.58H180a2.59,2.59,0,0,1-2.59-2.58v-245A4.16,4.16,0,0,1,181.56,114.2Z" transform="translate(-28.74)"/><rect class="cls-1" x="157.75" y="124.44" width="370.12" height="231.22"/><rect class="cls-13" x="234.01" y="281.39" width="92.13" height="56.11" rx="7.47" ry="7.47"/><rect class="cls-13" x="234.01" y="215.21" width="92.13" height="4.02" rx="2.01" ry="2.01"/><path class="cls-14" d="M264.76,227.73h88.1a2,2,0,0,1,2,2h0a2,2,0,0,1-2,2h-88.1a2,2,0,0,1-2-2h0A2,2,0,0,1,264.76,227.73Z" transform="translate(-28.74)"/><path class="cls-14" d="M264.76,240.24h88.1a2,2,0,0,1,2,2h0a2,2,0,0,1-2,2h-88.1a2,2,0,0,1-2-2h0A2,2,0,0,1,264.76,240.24Z" transform="translate(-28.74)"/><path class="cls-14" d="M264.76,252.75h88.1a2,2,0,0,1,2,2h0a2,2,0,0,1-2,2h-88.1a2,2,0,0,1-2-2h0A2,2,0,0,1,264.76,252.75Z" transform="translate(-28.74)"/><path class="cls-14" d="M264.76,265.27h88.1a2,2,0,0,1,2,2h0a2,2,0,0,1-2,2h-88.1a2,2,0,0,1-2-2h0A2,2,0,0,1,264.76,265.27Z" transform="translate(-28.74)"/><rect class="cls-13" x="234.01" y="193" width="92.13" height="14.67" rx="3.23" ry="3.23"/><path class="cls-14" d="M264.76,166.73h88.1a2,2,0,0,1,2,2h0a2,2,0,0,1-2,2h-88.1a2,2,0,0,1-2-2h0A2,2,0,0,1,264.76,166.73Z" transform="translate(-28.74)"/><path class="cls-14" d="M264.76,179.24h88.1a2,2,0,0,1,2,2h0a2,2,0,0,1-2,2h-88.1a2,2,0,0,1-2-2h0A2,2,0,0,1,264.76,179.24Z" transform="translate(-28.74)"/><rect class="cls-13" x="234.01" y="216.79" width="92.13" height="4.02" rx="2.01" ry="2.01"/><rect class="cls-13" x="234.01" y="144.51" width="92.13" height="14.67" rx="3.23" ry="3.23"/><rect class="cls-13" x="375.75" y="205.86" width="73.12" height="127.29" rx="5.34" ry="5.34"/><rect class="cls-13" x="457.38" y="277.53" width="58.34" height="4.02" rx="2.01" ry="2.01"/><path class="cls-14" d="M488.13,290h54.32a2,2,0,0,1,2,2h0a2,2,0,0,1-2,2H488.13a2,2,0,0,1-2-2h0A2,2,0,0,1,488.13,290Z" transform="translate(-28.74)"/><path class="cls-14" d="M488.13,302.56h54.32a2,2,0,0,1,2,2h0a2,2,0,0,1-2,2H488.13a2,2,0,0,1-2-2h0A2,2,0,0,1,488.13,302.56Z" transform="translate(-28.74)"/><path class="cls-14" d="M488.13,315.08h54.32a2,2,0,0,1,2,2h0a2,2,0,0,1-2,2H488.13a2,2,0,0,1-2-2h0A2,2,0,0,1,488.13,315.08Z" transform="translate(-28.74)"/><path class="cls-14" d="M488.13,327.59h54.32a2,2,0,0,1,2,2h0a2,2,0,0,1-2,2H488.13a2,2,0,0,1-2-2h0A2,2,0,0,1,488.13,327.59Z" transform="translate(-28.74)"/><rect class="cls-13" x="361.7" y="142.6" width="151.1" height="22.65"/><rect class="cls-13" x="361.7" y="174.01" width="151.1" height="18.59"/><rect class="cls-13" x="457.38" y="255.32" width="58.34" height="14.67" rx="3.23" ry="3.23"/><rect class="cls-13" x="457.38" y="229.05" width="58.34" height="4.02" rx="2.01" ry="2.01"/><path class="cls-14" d="M488.13,241.56h54.32a2,2,0,0,1,2,2h0a2,2,0,0,1-2,2H488.13a2,2,0,0,1-2-2h0A2,2,0,0,1,488.13,241.56Z" transform="translate(-28.74)"/><path class="cls-14" d="M488.13,279.11h54.32a2,2,0,0,1,2,2h0a2,2,0,0,1-2,2H488.13a2,2,0,0,1-2-2h0A2,2,0,0,1,488.13,279.11Z" transform="translate(-28.74)"/><rect class="cls-13" x="457.38" y="206.83" width="58.34" height="14.67" rx="3.23" ry="3.23"/><path class="cls-13" d="M174.21,144.86h50.33a4.3,4.3,0,0,1,4.3,4.3v74.67a4.3,4.3,0,0,1-4.3,4.3H174.21a4.3,4.3,0,0,1-4.3-4.3V149.16A4.31,4.31,0,0,1,174.21,144.86Z"/><rect class="cls-13" x="169.9" y="239.19" width="58.94" height="98.32" rx="4.3" ry="4.3"/><path class="cls-9" d="M529.34,424a9.5,9.5,0,0,0-9.47-9.47H228.36a9.5,9.5,0,0,0-9.47,9.47v10.18a3.41,3.41,0,0,0,3.4,3.4H525.95a3.41,3.41,0,0,0,3.4-3.4Z" transform="translate(-28.74)"/><path class="cls-15" d="M511.4,425.57a6.81,6.81,0,0,0-6.79-6.79h-261a6.81,6.81,0,0,0-6.79,6.79v9a2.44,2.44,0,0,0,2.44,2.44H509a2.44,2.44,0,0,0,2.44-2.44Z" transform="translate(-28.74)"/><text class="cls-16" transform="translate(246.4 294.68)">404</text><path class="cls-17" d="M486.11,222H475.79a3.4,3.4,0,0,0-3.39,3.39h0a3.4,3.4,0,0,0,3.39,3.39h10.32a3.4,3.4,0,0,0,3.39-3.39h0A3.4,3.4,0,0,0,486.11,222Z" transform="translate(-28.74)"/><path class="cls-17" d="M486.11,251.3H475.79a3.4,3.4,0,0,0-3.39,3.39h0a3.4,3.4,0,0,0,3.39,3.39h10.32a3.4,3.4,0,0,0,3.39-3.39h0A3.4,3.4,0,0,0,486.11,251.3Z" transform="translate(-28.74)"/><rect class="cls-18" x="483.25" y="236.26" width="31.97" height="7.59" rx="1.77" ry="1.77"/><path class="cls-19" d="M505.34,214.39H489.5v51.33h15.84a16.46,16.46,0,0,0,16.41-16.41V230.79A16.46,16.46,0,0,0,505.34,214.39Z" transform="translate(-28.74)"/><path class="cls-20" d="M500.83,214.39H489.5v51.33h15.84a16.39,16.39,0,0,0,12.61-5.94c-12.81,0-17.12-4.15-17.12-11.85Z" transform="translate(-28.74)"/><path class="cls-19" d="M490.12,208.78h0a5.56,5.56,0,0,0-5.55,5.55v51.46a5.56,5.56,0,0,0,5.55,5.55h0a5.56,5.56,0,0,0,5.55-5.55V214.32A5.56,5.56,0,0,0,490.12,208.78Z" transform="translate(-28.74)"/><path class="cls-19" d="M490.12,244.68h0a5.56,5.56,0,0,0-5.55,5.55v15.55a5.56,5.56,0,0,0,5.55,5.55h0a5.56,5.56,0,0,0,5.55-5.55V250.23A5.56,5.56,0,0,0,490.12,244.68Z" transform="translate(-28.74)"/><rect class="cls-21" x="170.4" y="207.43" width="60.56" height="65.24" rx="5.25" ry="5.25"/><rect class="cls-22" x="176.13" y="213.61" width="49.09" height="52.88" rx="4.26" ry="4.26"/><rect class="cls-21" x="182.74" y="221.45" width="11.13" height="37.2" rx="5.56" ry="5.56"/><rect class="cls-21" x="207.49" y="221.45" width="11.13" height="37.2" rx="5.56" ry="5.56"/><circle class="cls-23" cx="469.03" cy="196.11" r="4.73"/><path class="cls-24" d="M497.77,133.29c-7,.16-8.65,6.36-8,13.33l3.42,34.91c.35,3.56.44,6.33,4.55,6.69,4.12-.36,4.21-3.13,4.56-6.69l3.42-34.91C506.42,139.65,504.79,133.45,497.77,133.29Z" transform="translate(-28.74)"/><circle class="cls-23" cx="513.7" cy="200.05" r="4.19" transform="translate(62.33 554.01) rotate(-61.22)"/><path class="cls-24" d="M540.49,151.28c-5.52-2.87-9.43,1.25-11.87,6.95l-12.24,28.56c-1.25,2.91-2.36,5.1.68,7.13,3.35,1.48,4.6-.64,6.39-3.25L541,165C544.49,159.91,545.87,154.41,540.49,151.28Z" transform="translate(-28.74)"/><circle class="cls-23" cx="218.09" cy="340.88" r="4.53"/><path class="cls-24" d="M246.83,280.64c6.74.16,8.3,6.1,7.65,12.78L251.2,326.9c-.33,3.41-.42,6.07-4.37,6.41-3.95-.34-4-3-4.37-6.41l-3.28-33.48C238.53,286.74,240.09,280.8,246.83,280.64Z" transform="translate(-28.74)"/><circle class="cls-23" cx="233.35" cy="342.81" r="4.02" transform="translate(-164.98 154.72) rotate(-28.78)"/><path class="cls-24" d="M207.66,296c5.3-2.75,9,1.2,11.39,6.66l11.74,27.39c1.2,2.79,2.26,4.89-.66,6.84-3.21,1.42-4.41-.61-6.13-3.11l-16.82-24.59C203.82,304.33,202.5,299,207.66,296Z" transform="translate(-28.74)"/><circle class="cls-23" cx="260.64" cy="343.26" r="4.02" transform="translate(-194.62 405.26) rotate(-61.06)"/><path class="cls-24" d="M286.46,296.57c5.15,3,3.82,8.29.45,13.18L270,334.3c-1.72,2.5-2.93,4.53-6.13,3.1-2.91-2-1.84-4.06-.64-6.84l11.81-27.36C277.42,297.74,281.18,293.8,286.46,296.57Z" transform="translate(-28.74)"/><circle class="cls-23" cx="480.97" cy="200.05" r="4.19" transform="translate(-65.64 256.28) rotate(-28.78)"/><path class="cls-24" d="M454.18,151.28c5.52-2.87,9.43,1.25,11.87,6.95l12.24,28.56c1.25,2.91,2.36,5.1-.68,7.13-3.35,1.48-4.6-.64-6.39-3.25L453.67,165C450.17,159.91,448.79,154.41,454.18,151.28Z" transform="translate(-28.74)"/><polygon class="cls-12" points="197.59 163.58 209.49 151.68 221.39 163.58 197.59 163.58"/><polygon class="cls-12" points="481.2 330.27 493.1 318.37 505 330.27 481.2 330.27"/><polygon class="cls-12" points="374.26 172.9 380.21 166.95 386.16 172.9 374.26 172.9"/><polygon class="cls-12" points="279.32 340.47 285.27 334.52 291.22 340.47 279.32 340.47"/><path class="cls-8" d="M116.37,183.82h58.33a7.73,7.73,0,0,1,7.7,7.7v54.34a.86.86,0,0,1-1.47.61L167.8,233.35H116.37a7.73,7.73,0,0,1-7.7-7.7V191.53A7.73,7.73,0,0,1,116.37,183.82Z" transform="translate(-28.74)"/><path class="cls-1" d="M122.85,209.11h-4.54v4.21h5.06v1.27H116.8V202.9h6.31v1.27h-4.8v3.69h4.54Z" transform="translate(-28.74)"/><path class="cls-1" d="M125.33,203.06a15.73,15.73,0,0,1,2.89-.24,4.78,4.78,0,0,1,3.38,1,2.91,2.91,0,0,1,.92,2.22,3.07,3.07,0,0,1-2.2,3V209a2.91,2.91,0,0,1,1.72,2.36,18.68,18.68,0,0,0,.9,3.21h-1.56a15.09,15.09,0,0,1-.78-2.79c-.35-1.61-1-2.22-2.34-2.27h-1.42v5.06h-1.51Zm1.51,5.32h1.54c1.61,0,2.63-.88,2.63-2.22,0-1.51-1.09-2.17-2.69-2.18a6.21,6.21,0,0,0-1.49.14Z" transform="translate(-28.74)"/><path class="cls-1" d="M134.66,203.06a15.73,15.73,0,0,1,2.89-.24,4.78,4.78,0,0,1,3.38,1,2.91,2.91,0,0,1,.92,2.22,3.07,3.07,0,0,1-2.2,3V209a2.91,2.91,0,0,1,1.72,2.36,18.68,18.68,0,0,0,.9,3.21h-1.56a15.09,15.09,0,0,1-.78-2.79c-.35-1.61-1-2.22-2.34-2.27h-1.42v5.06h-1.51Zm1.51,5.32h1.54c1.61,0,2.63-.88,2.63-2.22,0-1.51-1.09-2.17-2.69-2.18a6.21,6.21,0,0,0-1.49.14Z" transform="translate(-28.74)"/><path class="cls-1" d="M154,208.62c0,4-2.44,6.15-5.43,6.15s-5.25-2.39-5.25-5.93c0-3.71,2.31-6.14,5.43-6.14S154,205.15,154,208.62Zm-9.07.19c0,2.5,1.35,4.73,3.73,4.73s3.74-2.2,3.74-4.85c0-2.32-1.21-4.75-3.73-4.75S145,206.25,145,208.81Z" transform="translate(-28.74)"/><path class="cls-1" d="M156,203.06a15.73,15.73,0,0,1,2.89-.24,4.78,4.78,0,0,1,3.38,1,2.91,2.91,0,0,1,.92,2.22,3.07,3.07,0,0,1-2.2,3V209a2.91,2.91,0,0,1,1.72,2.36,18.68,18.68,0,0,0,.9,3.21H162a15.09,15.09,0,0,1-.78-2.79c-.35-1.61-1-2.22-2.34-2.27H157.5v5.06H156Zm1.51,5.32H159c1.61,0,2.63-.88,2.63-2.22,0-1.51-1.09-2.17-2.69-2.18a6.21,6.21,0,0,0-1.49.14Z" transform="translate(-28.74)"/><path class="cls-25" d="M669.22,65.53H610.89a7.73,7.73,0,0,0-7.7,7.7v54.34a.86.86,0,0,0,1.47.61l13.13-13.13h51.44a7.73,7.73,0,0,0,7.7-7.7V73.24A7.73,7.73,0,0,0,669.22,65.53Z" transform="translate(-28.74)"/><path class="cls-1" d="M617.37,90.81h-4.54V95h5.06v1.27h-6.57V84.61h6.31v1.27h-4.8v3.69h4.54Z" transform="translate(-28.74)"/><path class="cls-1" d="M619.85,84.76a15.73,15.73,0,0,1,2.89-.24,4.78,4.78,0,0,1,3.38,1,2.91,2.91,0,0,1,.92,2.22,3.07,3.07,0,0,1-2.2,3v.05a2.91,2.91,0,0,1,1.72,2.36,18.68,18.68,0,0,0,.9,3.21H625.9a15,15,0,0,1-.78-2.79c-.35-1.61-1-2.22-2.34-2.27h-1.42v5.06h-1.51Zm1.51,5.32h1.54c1.61,0,2.63-.88,2.63-2.22,0-1.51-1.09-2.17-2.69-2.18a6.21,6.21,0,0,0-1.49.14Z" transform="translate(-28.74)"/><path class="cls-1" d="M629.18,84.76a15.73,15.73,0,0,1,2.89-.24,4.78,4.78,0,0,1,3.38,1,2.91,2.91,0,0,1,.92,2.22,3.07,3.07,0,0,1-2.2,3v.05a2.91,2.91,0,0,1,1.72,2.36,18.68,18.68,0,0,0,.9,3.21h-1.56a15,15,0,0,1-.78-2.79c-.35-1.61-1-2.22-2.34-2.27h-1.42v5.06h-1.51Zm1.51,5.32h1.54c1.61,0,2.63-.88,2.63-2.22,0-1.51-1.09-2.17-2.69-2.18a6.21,6.21,0,0,0-1.49.14Z" transform="translate(-28.74)"/><path class="cls-1" d="M648.55,90.33c0,4-2.44,6.15-5.43,6.15s-5.25-2.39-5.25-5.93c0-3.71,2.31-6.14,5.43-6.14S648.55,86.86,648.55,90.33Zm-9.07.19c0,2.5,1.35,4.73,3.73,4.73S647,93,647,90.4c0-2.32-1.21-4.75-3.73-4.75S639.48,88,639.48,90.52Z" transform="translate(-28.74)"/><path class="cls-1" d="M650.51,84.76a15.73,15.73,0,0,1,2.89-.24,4.78,4.78,0,0,1,3.38,1,2.91,2.91,0,0,1,.92,2.22,3.07,3.07,0,0,1-2.2,3v.05a2.91,2.91,0,0,1,1.72,2.36,18.68,18.68,0,0,0,.9,3.21h-1.56a15.13,15.13,0,0,1-.78-2.79c-.35-1.61-1-2.22-2.34-2.27H652v5.06h-1.51ZM652,90.09h1.54c1.61,0,2.63-.88,2.63-2.22,0-1.51-1.09-2.17-2.69-2.18a6.21,6.21,0,0,0-1.49.14Z" transform="translate(-28.74)"/><path class="cls-6" d="M467,54.19a15.55,15.55,0,1,0,3.38,5.05A15.58,15.58,0,0,0,467,54.19Zm-5.6-2a14.2,14.2,0,1,1-5.4-1.07,14.14,14.14,0,0,1,5.4,1.07Zm1.72-11.45a25.09,25.09,0,0,1,2.87,1,25.39,25.39,0,0,1,2.75,1.37,25.68,25.68,0,0,1,5,3.74,1.63,1.63,0,0,0,1.95.24c2.28-1.32,4.69-2.62,6.92-4a.93.93,0,0,1,.34-.1,1,1,0,0,1,.38,0,1,1,0,0,1,.6.46c1.67,2.52,3.34,5.78,4.88,8.45a.91.91,0,0,1,.12.36,1,1,0,0,1,0,.39,1,1,0,0,1-.17.35,1,1,0,0,1-.29.25c-2.05,1.36-4.7,2.72-6.88,4a1.61,1.61,0,0,0-.69.77,1.71,1.71,0,0,0-.1.34l-.14,0,.16.64c.13.5.23,1,.33,1.51s.17,1,.23,1.54.11,1,.14,1.55,0,1,0,1.56,0,1.07,0,1.56-.08,1-.14,1.55-.14,1-.23,1.53-.2,1-.33,1.51a1.62,1.62,0,0,0,.84,1.84l6.09,3.52h0l.72.42a1,1,0,0,1,.29.25,1,1,0,0,1,.2.74.91.91,0,0,1-.12.36l-4.51,7.82h0l-.36.63a1,1,0,0,1-.25.29,1,1,0,0,1-.35.17,1.05,1.05,0,0,1-.39,0,1,1,0,0,1-.36-.12c-2.18-1.37-4.65-2.68-6.9-4a1.63,1.63,0,0,0-1.94.23h0a25.76,25.76,0,0,1-5,3.74A25.36,25.36,0,0,1,463,89.7a1.63,1.63,0,0,0-1.18,1.57v8a1,1,0,0,1-.07.37,1,1,0,0,1-.22.32,1,1,0,0,1-.32.22,1,1,0,0,1-.37.07h-9.76a1,1,0,0,1-.37-.07,1,1,0,0,1-.54-.54,1,1,0,0,1-.07-.37v-8a1.65,1.65,0,0,0-1.26-1.59,24.86,24.86,0,0,1-2.87-1,25.34,25.34,0,0,1-5.35-3.09,25.6,25.6,0,0,1-2.37-2,1.63,1.63,0,0,0-2-.19l-6.81,3.93a1,1,0,0,1-.36.12,1,1,0,0,1-.39,0,1,1,0,0,1-.35-.17,1,1,0,0,1-.25-.29c-1.62-2.82-3.26-5.63-4.88-8.45a1,1,0,0,1-.12-.36,1,1,0,0,1,0-.39,1,1,0,0,1,.17-.35.92.92,0,0,1,.28-.25l6.89-4a1.61,1.61,0,0,0,.69-.77,1.65,1.65,0,0,0,.09-.26l.18,0-.18-.73c-.12-.5-.23-1-.33-1.51s-.17-1-.23-1.54-.11-1-.14-1.55,0-1,0-1.56,0-1.06,0-1.56.08-1,.14-1.55.15-1.05.23-1.54.2-1,.33-1.51a1.62,1.62,0,0,0-.1-1.08,1.65,1.65,0,0,0-.73-.76l-6.82-3.94a1,1,0,0,1-.28-.25,1,1,0,0,1-.17-.35,1,1,0,0,1,0-.39,1,1,0,0,1,.12-.36c1.66-2.48,3.33-5.79,4.88-8.45a1,1,0,0,1,.25-.29,1,1,0,0,1,.74-.2,1,1,0,0,1,.36.12l6.89,4a1.6,1.6,0,0,0,1,.21,1.63,1.63,0,0,0,.93-.46A25.49,25.49,0,0,1,446,41.7a25.37,25.37,0,0,1,2.92-1,1.63,1.63,0,0,0,1.18-1.57v-8a1,1,0,0,1,.07-.37,1,1,0,0,1,.22-.32,1,1,0,0,1,.7-.29h9.76a1,1,0,0,1,.37.07,1,1,0,0,1,.32.22,1,1,0,0,1,.29.7v8a1.63,1.63,0,0,0,.35,1,1.65,1.65,0,0,0,.91.58Zm3.43-.3a27,27,0,0,1,5.65,3.27,27.25,27.25,0,0,1,2.5,2.13.18.18,0,0,0,.11.05.19.19,0,0,0,.12,0l7-4a2.4,2.4,0,0,1,.87-.27,2.43,2.43,0,0,1,2.39,1.2c1.68,2.72,3.27,5.66,4.88,8.45a2.4,2.4,0,0,1,.3.9,2.45,2.45,0,0,1-.48,1.8,2.37,2.37,0,0,1-.71.62c-2.21,1.37-4.62,2.67-6.89,4a.19.19,0,0,0-.08.09.19.19,0,0,0,0,.12l.16.64h0c.07.31.13.63.19,1,.1.55.18,1.09.25,1.63s.11,1.07.15,1.63.05,1.11.05,1.65,0,1.09-.05,1.65-.08,1.11-.15,1.63-.15,1.07-.25,1.62-.21,1.08-.34,1.6a.19.19,0,0,0,0,.13.19.19,0,0,0,.08.09c2.53,1.35,5.1,2.94,7.6,4.39l-.09.11.08.09a2.45,2.45,0,0,1,.48,1.8,2.38,2.38,0,0,1-.3.9l-5.24,9.08-.1-.06-.16.13a2.43,2.43,0,0,1-1.79.48,2.41,2.41,0,0,1-.87-.29c-2.29-1.22-4.66-2.69-6.92-4a.2.2,0,0,0-.23,0,26.94,26.94,0,0,1-5.24,3.95,26.72,26.72,0,0,1-6,2.56.19.19,0,0,0-.1.07.17.17,0,0,0,0,.12v8a2.42,2.42,0,0,1-.72,1.71,2.46,2.46,0,0,1-.78.53,2.41,2.41,0,0,1-.93.19h-9.76a2.41,2.41,0,0,1-.93-.19,2.49,2.49,0,0,1-.79-.53,2.46,2.46,0,0,1-.53-.79,2.4,2.4,0,0,1-.19-.93v-8a.19.19,0,0,0,0-.12.2.2,0,0,0-.11-.07h0a26.87,26.87,0,0,1-8.72-4.36,27.1,27.1,0,0,1-2.5-2.13.18.18,0,0,0-.11-.05.2.2,0,0,0-.12,0l-6.89,4a2.39,2.39,0,0,1-.89.3,2.48,2.48,0,0,1-.95-.06,2.43,2.43,0,0,1-.85-.42,2.39,2.39,0,0,1-.61-.69c-1.81-2.91-3.52-6.1-5.25-9.08l.09-.06a2.3,2.3,0,0,1,0-.23,2.48,2.48,0,0,1,.06-.94,2.44,2.44,0,0,1,.42-.85,2.38,2.38,0,0,1,.71-.62l6.89-4a.18.18,0,0,0,.08-.09.19.19,0,0,0,0-.12l-.18-.73h0q-.09-.42-.17-.86c-.1-.55-.19-1.09-.25-1.62s-.11-1.07-.15-1.63-.05-1.11-.05-1.65,0-1.08.05-1.65.08-1.11.15-1.64.15-1.07.25-1.62.21-1.08.34-1.59a.2.2,0,0,0,0-.13.19.19,0,0,0-.09-.09l-6.88-4a2.35,2.35,0,0,1-.71-.62,2.43,2.43,0,0,1-.48-1.79,2.43,2.43,0,0,1,.29-.88c1.64-3,3.52-6.1,5.25-9.1l.1.06.16-.14a2.45,2.45,0,0,1,1.79-.48,2.41,2.41,0,0,1,.89.3l.51.29h0l6.39,3.69a.19.19,0,0,0,.12,0,.19.19,0,0,0,.11-.05l0,0a26.93,26.93,0,0,1,8.15-5.39,26.59,26.59,0,0,1,3.09-1.09.2.2,0,0,0,.1-.07.17.17,0,0,0,0-.12v-8a2.39,2.39,0,0,1,.19-.93,2.42,2.42,0,0,1,.53-.79,2.44,2.44,0,0,1,.79-.53,2.4,2.4,0,0,1,.93-.19h9.76a2.41,2.41,0,0,1,.93.19,2.51,2.51,0,0,1,.79.53,2.42,2.42,0,0,1,.71,1.71v8a.21.21,0,0,0,0,.12.2.2,0,0,0,.11.07h0A27.05,27.05,0,0,1,466.55,40.39Z" transform="translate(-28.74)"/><path class="cls-6" d="M659.57,395.88Zm-3.43-13.07a6.6,6.6,0,1,0,1.93,4.67,6.58,6.58,0,0,0-1.93-4.67Zm-1.43-6.55a11.64,11.64,0,0,1,2.59,1.1,11.79,11.79,0,0,1,2.27,1.71.41.41,0,0,0,.48.06l3.07-1.77h0a.77.77,0,0,1,1,.29v0l2.16,3.74a.77.77,0,0,1-.28,1h0l-3,1.76a.41.41,0,0,0-.19.45h0a11.61,11.61,0,0,1,.26,1.4,11.82,11.82,0,0,1,0,2.84,11.34,11.34,0,0,1-.26,1.4.41.41,0,0,0,.21.46l3,1.76h0a.76.76,0,0,1,.35.46.76.76,0,0,1-.07.58l-2.17,3.76h0a.77.77,0,0,1-1,.28h0l-3-1.76a.41.41,0,0,0-.48.06,11.73,11.73,0,0,1-2.27,1.71,11.52,11.52,0,0,1-2.61,1.11.41.41,0,0,0-.29.39v3.54a.75.75,0,0,1-.22.54.76.76,0,0,1-.54.22H649.3a.76.76,0,0,1-.76-.76v-3.54a.4.4,0,0,0-.31-.39,11.56,11.56,0,0,1-2.59-1.1,11.7,11.7,0,0,1-2.27-1.71.4.4,0,0,0-.5,0l-3,1.76a.77.77,0,0,1-1-.28v0l-2.16-3.74h0a.76.76,0,0,1-.07-.58.75.75,0,0,1,.35-.46l3.07-1.77a.4.4,0,0,0,.19-.45h0a11.33,11.33,0,0,1-.26-1.4,11.82,11.82,0,0,1,0-2.84,11.4,11.4,0,0,1,.26-1.4.41.41,0,0,0-.21-.46l-3-1.76a.77.77,0,0,1-.28-1v0l2.16-3.74h0a.76.76,0,0,1,1-.28h0l3.07,1.77a.41.41,0,0,0,.49-.07,11.65,11.65,0,0,1,4.87-2.81.41.41,0,0,0,.29-.39v-3.54a.76.76,0,0,1,.76-.76h4.34a.76.76,0,0,1,.76.76v3.54A.41.41,0,0,0,654.71,376.27Z" transform="translate(-28.74)"/><path class="cls-6" d="M694.21,233.82a1.13,1.13,0,0,1,2.27,0v2.66h2.66a1.13,1.13,0,1,1,0,2.27h-2.66v2.66a1.13,1.13,0,0,1-2.27,0v-2.66h-2.66a1.13,1.13,0,0,1,0-2.27h2.66Z" transform="translate(-28.74)"/><path class="cls-6" d="M387,75.57ZM383.55,62.5a6.6,6.6,0,1,0,1.93,4.67,6.58,6.58,0,0,0-1.93-4.67ZM382.12,56A11.66,11.66,0,0,1,387,58.77a.41.41,0,0,0,.48.06l3.07-1.77h0a.77.77,0,0,1,1,.29v0l2.16,3.74a.77.77,0,0,1-.28,1h0l-3,1.76a.41.41,0,0,0-.19.45h0a11.31,11.31,0,0,1,.26,1.39,11.94,11.94,0,0,1,0,2.84,11.54,11.54,0,0,1-.26,1.4.41.41,0,0,0,.22.46l3,1.76h0a.77.77,0,0,1,.28,1L391.57,77h0a.76.76,0,0,1-1,.28h0l-3-1.76a.4.4,0,0,0-.48.06,11.66,11.66,0,0,1-4.88,2.82.41.41,0,0,0-.29.39v3.54a.76.76,0,0,1-.76.76h-4.34a.76.76,0,0,1-.76-.76V78.78a.41.41,0,0,0-.31-.4,11.58,11.58,0,0,1-2.59-1.1,11.75,11.75,0,0,1-2.27-1.71.4.4,0,0,0-.5,0l-3,1.76a.77.77,0,0,1-1-.28v0L364,73.24h0a.77.77,0,0,1,.28-1l3.07-1.77a.4.4,0,0,0,.19-.45h0a11.77,11.77,0,0,1,0-5.63.4.4,0,0,0-.21-.46l-3-1.76a.77.77,0,0,1-.28-1v0l2.16-3.74h0a.77.77,0,0,1,1-.28h0l3.07,1.77a.41.41,0,0,0,.49-.07,11.76,11.76,0,0,1,2.26-1.7,11.58,11.58,0,0,1,2.6-1.11.41.41,0,0,0,.29-.39V52a.76.76,0,0,1,.76-.76h4.34a.76.76,0,0,1,.76.76v3.54A.41.41,0,0,0,382.12,56Z" transform="translate(-28.74)"/><path class="cls-6" d="M93.33,329.47ZM89.9,316.4a6.6,6.6,0,1,0,1.93,4.67,6.58,6.58,0,0,0-1.93-4.67Zm-1.43-6.54a11.64,11.64,0,0,1,4.86,2.81.41.41,0,0,0,.48.06L96.88,311h0a.77.77,0,0,1,1,.29v0l2.16,3.74a.77.77,0,0,1-.28,1h0l-3,1.76a.4.4,0,0,0-.19.45h0a11.56,11.56,0,0,1,.26,1.39,11.82,11.82,0,0,1,0,2.85,11.66,11.66,0,0,1-.26,1.39.4.4,0,0,0,.21.46l3,1.76h0a.76.76,0,0,1,.28,1l-2.17,3.76h0a.77.77,0,0,1-1,.28h0l-3-1.76a.41.41,0,0,0-.48.06,11.64,11.64,0,0,1-4.88,2.82.41.41,0,0,0-.29.39v3.54a.76.76,0,0,1-.76.76H83.06a.76.76,0,0,1-.76-.76v-3.54a.4.4,0,0,0-.31-.39,11.64,11.64,0,0,1-4.86-2.81.4.4,0,0,0-.5,0l-3,1.76a.76.76,0,0,1-.58.07.75.75,0,0,1-.46-.35v0l-2.16-3.74h0a.77.77,0,0,1,.28-1l3.07-1.77a.41.41,0,0,0,.19-.45h0a11.75,11.75,0,0,1,0-5.64.4.4,0,0,0-.21-.46l-3-1.76a.77.77,0,0,1-.28-1v0l2.16-3.74h0a.76.76,0,0,1,1-.28h0l3.07,1.77a.4.4,0,0,0,.49-.07A11.74,11.74,0,0,1,79.4,311a11.6,11.6,0,0,1,2.6-1.11.4.4,0,0,0,.29-.39v-3.54a.76.76,0,0,1,.76-.76H87.4a.76.76,0,0,1,.76.76v3.54A.41.41,0,0,0,88.47,309.85Z" transform="translate(-28.74)"/><path class="cls-3" d="M696.51,303.68a5.5,5.5,0,0,1,3.91,1.62h0a5.53,5.53,0,1,1-7.82,7.82h0a5.53,5.53,0,0,1,3.91-9.44Zm2.63,2.9a3.72,3.72,0,0,0-5.26,5.26h0a3.72,3.72,0,0,0,5.25-5.26Z" transform="translate(-28.74)"/><path class="cls-3" d="M713.18,89.54a5.52,5.52,0,0,1,3.91,1.62h0A5.53,5.53,0,1,1,709.27,99h0a5.53,5.53,0,0,1,3.91-9.44Zm2.63,2.9a3.72,3.72,0,0,0-5.26,5.26h0a3.72,3.72,0,0,0,5.25-5.26Z" transform="translate(-28.74)"/><path class="cls-3" d="M551.61,43.37A5.51,5.51,0,0,1,555.52,45h0a5.53,5.53,0,1,1-7.82,7.82h0a5.53,5.53,0,0,1,3.91-9.44Zm2.63,2.9A3.72,3.72,0,0,0,549,51.53h0a3.72,3.72,0,0,0,5.25-5.26Z" transform="translate(-28.74)"/><path class="cls-3" d="M64.33,190.84a5.51,5.51,0,0,1,3.91,1.62h0a5.53,5.53,0,1,1-7.82,7.82h0a5.53,5.53,0,0,1,3.91-9.44Zm2.63,2.9A3.72,3.72,0,0,0,61.7,199h0A3.72,3.72,0,0,0,67,193.74Z" transform="translate(-28.74)"/><path class="cls-6" d="M687.8,51.73a1.13,1.13,0,1,1,2.26,0v2.66h2.66a1.13,1.13,0,1,1,0,2.27h-2.66v2.66a1.13,1.13,0,1,1-2.26,0V56.66h-2.66a1.13,1.13,0,1,1,0-2.27h2.66Z" transform="translate(-28.74)"/><path class="cls-6" d="M221,60.71a1.13,1.13,0,0,1,2.26,0v2.66H226a1.13,1.13,0,0,1,0,2.27H223.3V68.3a1.13,1.13,0,1,1-2.26,0V65.64h-2.66a1.13,1.13,0,0,1,0-2.27H221Z" transform="translate(-28.74)"/><path class="cls-6" d="M123.58,42.76a1.13,1.13,0,1,1,2.27,0v2.66h2.66a1.13,1.13,0,1,1,0,2.26h-2.66v2.66a1.13,1.13,0,0,1-2.27,0V47.68h-2.66a1.13,1.13,0,0,1,0-2.26h2.66Z" transform="translate(-28.74)"/><path class="cls-6" d="M45.36,108.15a1.13,1.13,0,0,1,2.27,0v2.66h2.66a1.13,1.13,0,1,1,0,2.27H47.62v2.66a1.13,1.13,0,1,1-2.27,0v-2.66H42.7a1.13,1.13,0,1,1,0-2.27h2.66Z" transform="translate(-28.74)"/><path class="cls-6" d="M32.54,309.48a1.13,1.13,0,0,1,2.27,0v2.66h2.66a1.13,1.13,0,0,1,0,2.26H34.8v2.66a1.13,1.13,0,1,1-2.27,0V314.4H29.87a1.13,1.13,0,1,1,0-2.26h2.66Z" transform="translate(-28.74)"/><path class="cls-6" d="M639.07,346.66a1.13,1.13,0,0,1,2.26,0v2.66H644a1.13,1.13,0,1,1,0,2.26h-2.66v2.66a1.13,1.13,0,1,1-2.26,0v-2.66h-2.66a1.13,1.13,0,1,1,0-2.26h2.66Z" transform="translate(-28.74)"/><path class="cls-26" d="M642.65,309c12-12.27,21,3.32,19.76,19s-15.41,71.4-11.07,90.37a31.86,31.86,0,0,1,.62,3.43h-2.58q-.33-.5-.68-1.1C635.08,397.39,626.07,325.89,642.65,309Z" transform="translate(-28.74)"/><path class="cls-27" d="M649.78,421.76c-15.31-43.49,1-109.75,1.08-110a.69.69,0,0,1,1.34.33c-.05.21-16.43,66.61-1,109.63Z" transform="translate(-28.74)"/><path class="cls-28" d="M672.38,336c12.7-6.73,15.9,8,11,20.09-4.62,11.34-27,47.66-31.08,65.63h-4C645.45,397,656,344.69,672.38,336Z" transform="translate(-28.74)"/><path class="cls-26" d="M649.6,421.76c1.68-37.4,28.52-81.27,28.61-81.42a.58.58,0,0,1,1,.6c-.09.15-26.79,43.79-28.45,80.82Z" transform="translate(-28.74)"/><path class="cls-27" d="M618.71,353c-12.31-5.37-14.26,8.53-8.79,19.5,4.22,8.48,21,32.06,29.53,49.26H647C644.78,396.91,632.63,359.08,618.71,353Z" transform="translate(-28.74)"/><path class="cls-28" d="M644.27,421.76c-7.37-32-30.6-64.21-30.69-64.33a.54.54,0,1,0-.88.63c.09.12,23.11,32.09,30.47,63.71Z" transform="translate(-28.74)"/><rect class="cls-11" x="595.19" y="405.3" width="39.98" height="12.82" rx="1.96" ry="1.96"/><polygon class="cls-15" points="627.02 412.55 603.33 412.55 597.15 418.13 602.2 437.59 615.18 437.59 628.15 437.59 633.21 418.13 627.02 412.55"/><polygon class="cls-9" points="597.15 418.13 598.19 422.13 632.17 422.13 633.21 418.13 597.15 418.13"/><path class="cls-27" d="M564.59,213.85s-5.79,13.29-6.92,7.29c-2.41-12.85-18.49-23.64-22.8-30.46-2.62-4.15-4.71-5.26-2.86-8,6.34-9.57,21.4-15.74,34.26-20.48,4.76-1.75,3.92,2.87.55,6.49-3,3.2-21.35,13.08-20.09,15.37,1.47,2.69,10.79,11,23.42,13.84S571.73,211.1,564.59,213.85Z" transform="translate(-28.74)"/><path class="cls-27" d="M587,205.45s-1.63-2.46.34,4.16c1.4,4.73,21.66,23.62,30.9,31.57S628,247.92,641,247c9.58-.7,20.53-2.17,23.2-3.79,0,0,.49-.33-.07-.86s-3-1.89-3.11-3-1.08-1-2.24-.48-22.76-.41-28-1.09-20.95-27.11-23.54-29.6S594.85,201,587,205.45Z" transform="translate(-28.74)"/><path class="cls-29" d="M588.94,180.86l-.27,4-.2,9.53c0,.93.38,1.25,1.42,2,1.33,2.42-2.78,12.64-5.56,13s-15.54-.92-16.42-1.67c-.62-.52,5.89-9.85,5.56-11.34.57-.14,1.95.12,2.37-.24.59-1.8,2-9,.07-11.39C574.49,183,588.94,180.86,588.94,180.86Z" transform="translate(-28.74)"/><path class="cls-30" d="M564.58,211.6c2.35-1.34,3.65-.18,6.12,2.44s4.86,2.42,6.24,3,.83,24.46-8.35,27.94c-3.4,1.29-5.46-.15-6.7-3C559.67,236.84,558.47,215.08,564.58,211.6Z" transform="translate(-28.74)"/><path class="cls-31" d="M556.46,274.22l-2,2.83s1.34,24.78,4.41,56.75,8.95,90,8.82,95.65,7.79,2.87,8.75,1.27-2.61-114.94-1.85-125.26c.27-3.6,5.06-2.25,6.92,4.92,3.48,13.38,5,41.62,6.12,57.71,1.66,24.7,4.69,62.45,4.47,64.45s6.77,4,8.18.8a4.42,4.42,0,0,0,.19-2.18c-.1-1.71,1.41-157-.38-161.19S560.68,263.72,556.46,274.22Z" transform="translate(-28.74)"/><path class="cls-8" d="M602,288.36c-2.08,4.39-11.92,7.2-19.69,8.31h0c-1.86.27-3.6.43-5.09.5a10.82,10.82,0,0,1-2.72-.19,50.31,50.31,0,0,1-18.53-3.84c-2.29-.24-3.53-1-4.14-2.14h0c-1-1.79-.32-4.4.23-6.72,1-4.17,5.69-12.23,5.29-32.12-.38-19.13-3.36-51.32,14.45-55.4h0s1.91-1.2,3.49-.51c0,0-3.74,6.42.38,9.55l.16.1a5.72,5.72,0,0,0,1.68.64c4.45.57,11.21-5.33,12.44-10.08a4.53,4.53,0,0,1,3,1.63l-.1.25c.59.64-.28,1.4-.86,1.81l-.23.4c3.3,1.72,7.28,4.68,7.75,8.23.69,5.17,4.63,24.44.69,35.56C593.56,263,605.47,281,602,288.36Z" transform="translate(-28.74)"/><path class="cls-7" d="M602,288.36c-2.08,4.39-11.92,7.2-19.69,8.31h0c-1.86.27-3.6.43-5.09.5a10.82,10.82,0,0,1-2.72-.19,50.31,50.31,0,0,1-18.53-3.84c-2.29-.24-3.53-1-4.14-2.14h0c-1-1.79-.32-4.4.23-6.72l0-.08c5.73-.49,11.77-1.69,15.4-4.4,8.53-6.35,20.51-64.05,23.55-78.28,0,0,4.32,7,10,17.37,1,8,1.71,18.37-.81,25.47C593.56,263,605.47,281,602,288.36Z" transform="translate(-28.74)"/><path class="cls-12" d="M570.93,432s-2.34-2.65-4.21-2.2-12.66,5.28-14.39,5.94-3.55,3.18-2.19,4.62c2.06,2.17,20.09-.18,25.63.21,1.78.12,3.86-3.52,2.14-8.79S577.34,432.94,570.93,432Z" transform="translate(-28.74)"/><path class="cls-12" d="M601.53,432.12a4.24,4.24,0,0,1,1.21,1.51c.78,1.73,2.26,2.52,2.53,4.41s-.35,3.38-3.09,3.38h-4.44c-2,0-4.88.29-5.88-2-.43-1-.75-5.88,0-6.89C593.27,430.75,597.76,429,601.53,432.12Z" transform="translate(-28.74)"/><path class="cls-27" d="M592.92,198.09s-10.14,18.32-12.28,48.81-1.17,51,22.13,58.31c0,0,1.08.31,1.9-1.88,3.89-10.38-9.12-55.89,1.67-83.55C609.6,211.46,605.25,201,592.92,198.09Z" transform="translate(-28.74)"/><path class="cls-27" d="M571.74,196.77s-4.86,9.67-5.19,29.19-3.48,52.94-4.61,59.88-6.1,14.35-8.76,15.18c0,0-3.59,1-4.18-4.27s5.57-25.68,6.69-48.71S555.3,199.05,571.74,196.77Z" transform="translate(-28.74)"/><path class="cls-26" d="M579.44,265.33s8-48.19,17.9-66c0,0-3.23-2-5-1.66S579.43,228.26,579.44,265.33Z" transform="translate(-28.74)"/><path class="cls-26" d="M571.75,196.76c-3.73,11.67-5.21,48.48-7.51,62.76-.39-6.55-.67-50.56,3.47-61.5A4.83,4.83,0,0,1,571.75,196.76Z" transform="translate(-28.74)"/><path class="cls-26" d="M593.79,276.31a1.12,1.12,0,0,0-1.33-.8,1.05,1.05,0,0,0-.84,1.26s2.59,11.16,8.2,14.47a1.15,1.15,0,0,0,1.53-.34,1,1,0,0,0-.36-1.45C596.19,286.6,593.8,276.34,593.79,276.31Z" transform="translate(-28.74)"/><path class="cls-26" d="M554.56,271.85a1,1,0,0,1,1.09-.85,1,1,0,0,1,.9,1s-1,10.21-5.61,13.74a1,1,0,0,1-1.41-.14.91.91,0,0,1,.15-1.33C553.63,281.27,554.56,271.87,554.56,271.85Z" transform="translate(-28.74)"/><path class="cls-32" d="M570,175.86s-3.34-3-3.33-4.81,2.46-1.11,2.46-1.11-3.75-3.7-3.81-7,3.35-2.1,3.35-2.1a5.44,5.44,0,0,1,.91-6.24A4.08,4.08,0,0,1,569,151a.24.24,0,0,1,.35-.17c.3.09.4,1.74,2.28,1.7,0,0,.76-5.76,5.35-3.1,0,0,3-5.83,7.94-1.62,0,0,9.89-3.67,13.3,5.18,0,0,6.13-1.22,5.91,5.44,0,0,3.11,1.44,1,6.53,0,0,2-1.91,2.87-1.45s-.94,4.21-3,5.75c0,0,2.15-.95,2.42.24s-1.89,3.34-3.24,3.67a1.8,1.8,0,0,1,.61,1.79c-.18,1.26-3.18,4-7.3,4.53S580.22,181.9,570,175.86Z" transform="translate(-28.74)"/><path class="cls-9" d="M570,175.86s-3.34-3-3.33-4.81,2.46-1.11,2.46-1.11-3.75-3.7-3.81-7a2,2,0,0,1,1-2.09s-1.1,1.76,1.43,3.06,11.15-.36,14.54-2.9a5.22,5.22,0,0,0,4.77,3.7,7.74,7.74,0,0,0,6.49-3.45s2.22,4.15,6.86,3.4a6,6,0,0,0,5.08-4.89c.51,1,.76,2.62-.27,5.15,0,0,2-1.91,2.87-1.45s-.94,4.21-3,5.75c0,0,2.15-.95,2.42.24s-1.89,3.34-3.24,3.67a1.81,1.81,0,0,1,.61,1.79c-.18,1.26-3.18,4-7.3,4.53S580.22,181.9,570,175.86Z" transform="translate(-28.74)"/><circle class="cls-33" cx="570.19" cy="177.61" r="4.06" transform="translate(285.41 717.15) rotate(-81.91)"/><circle class="cls-33" cx="597.72" cy="181.52" r="4.06" transform="matrix(0.14, -0.99, 0.99, 0.14, 305.21, 747.77)"/><path class="cls-34" d="M586.5,155.09h0a13.94,13.94,0,0,1,11.81,15.72l-1.78,12.51a13.94,13.94,0,0,1-15.72,11.81h0A13.94,13.94,0,0,1,569,179.41l1.78-12.51A13.94,13.94,0,0,1,586.5,155.09Z" transform="translate(-28.74)"/><path class="cls-35" d="M591.95,157.1l0,0a14,14,0,0,1,6.33,13.7l-1.78,12.51a13.94,13.94,0,0,1-15.72,11.81h0A13.8,13.8,0,0,1,576,193.5c13.45,2,16.24-6.93,17.33-14.58,1.61-11.31-11.32-9-21.44-10.43-.45-.06-.88-.14-1.31-.22l.2-1.37a13.77,13.77,0,0,1,1-3.51c5.92-2.65,14.08-6,17.73-6.23l2.34-.14.08,0C591.83,157.09,591.82,157.1,591.95,157.1Z" transform="translate(-28.74)"/><path class="cls-9" d="M596.89,169.62l-.6,4.23c-.24,1.66,0,2.2.74,2.92,0,0-.74,1.53.13,2a1.47,1.47,0,0,1,1.53-1.24l1.55-10.93a5.64,5.64,0,0,1-3.32,2A4.49,4.49,0,0,1,596.89,169.62Z" transform="translate(-28.74)"/><path class="cls-32" d="M590.6,166.65s-5.68,2.57-9-.8c-1.46,2.41-7,4.69-5,.22-3.06,1.35-2.48-.42-1.61-.84,0,0-2.79,1.25-4.35.87-6.79-1.65,4.12-11.17,6.2-12.71,0,0,14.53.15,15.05,1,.18.3.72.92,1.34,1.65a19,19,0,0,1,3.21.92c.39.27,4.86,4.8,5.6,5.69s2.51,11.88-4.29,11.54S590.6,166.65,590.6,166.65Z" transform="translate(-28.74)"/><path class="cls-9" d="M590.6,166.65s-5.68,2.57-9-.8c-1.46,2.41-7,4.69-5,.22-3.06,1.35-2.48-.42-1.61-.84,0,0-2.79,1.25-4.35.87-1.41-.34-2.06-1-2.18-1.91,3.23.71,10.62-.88,13.7-3.19a5.22,5.22,0,0,0,4.77,3.7,7.74,7.74,0,0,0,6.49-3.45s2.22,4.15,6.86,3.4a6.38,6.38,0,0,0,2.18-.75c.67,3.09.92,10.57-4.71,10.28C591,173.85,590.6,166.65,590.6,166.65Z" transform="translate(-28.74)"/><path class="cls-5" d="M575.67,188c.83-3.27,2.18-4.64,4-4.39,3.14.43,2.55,5.74,2.55,5.74Z" transform="translate(-28.74)"/><path class="cls-34" d="M664.76,244.08H665a7,7,0,0,0,2.6-.4c3.78-.84,8.71-2.81,9.11-4,.52-1.53-1.48-.79-1.48-.79s1.87-1.16,1.93-2.08-1.22-.92-1.22-.92,1.74-1.41,1.29-2-1.87-.49-1.87-.49,1.42-1.22.77-1.59-3.8,1.65-5.35,2.08c-.91.25-3,.78-4.6,1.17a.78.78,0,0,1,0-.6c1.17-3-1-6.36-1.73-4.07-.35,1-.61,2.5-1.59,3.22-1.67,1.23-3.19,4-3.07,5.9,1,3.12,3,4.33,5,4.5Z" transform="translate(-28.74)"/><path class="cls-35" d="M664.76,244.08H665a7,7,0,0,0,2.6-.4c.7-.16,1.44-.35,2.18-.57a11.31,11.31,0,0,1-3.56.18c-3.57-.58-5.15-4-5-7.78a7.2,7.2,0,0,0-1.37,4c1,3.12,3,4.33,5,4.5Z" transform="translate(-28.74)"/><path class="cls-26" d="M556.94,218.38c.45-10.94,1.31-13-2.92-15.9s-18.17-12.12-22.18-19.58c-1.55,2.6.48,3.77,3,7.78C538.87,197,553,206.75,556.94,218.38Z" transform="translate(-28.74)"/><path class="cls-26" d="M605.46,222.28a58.14,58.14,0,0,0-1.58,5.85c5.26,5,10.65,9.89,14.31,13,9.25,8,9.77,6.74,22.86,5.78,8.58-.63,18.27-1.88,22.11-3.29a5.22,5.22,0,0,1-2.07-1.6c-8,1.67-20.95,4.07-27.67,3.69C624.72,245.26,609.59,227.38,605.46,222.28Z" transform="translate(-28.74)"/><path class="cls-12" d="M157.68,431.05a8.46,8.46,0,0,1-8.48,6.54H125.88c-3.09,0-13.25-3.62-11.31-14.75S157.68,431.05,157.68,431.05Z" transform="translate(-28.74)"/><path class="cls-9" d="M230.48,407.64c.88-1.24,6.55-11.25,6.55-11.25H221.82c-4.33,0-17.58,2.94-24.38,3s-61.31-2.56-61.31-2.56S111,392,107.46,391.57s2.87,17.13,4.11,18.54,57.25,19.08,62,17.49S230.48,407.64,230.48,407.64Z" transform="translate(-28.74)"/><path class="cls-36" d="M167.47,421.22s54.07-21.38,60.78-23.32,11.66-2.39,14.93,1,4.77,10.42,0,15.37-37.81,13.87-51.42,15.81-19,3.09-21,3.36-3.27-.09-3.84-1.86a45.62,45.62,0,0,1-1.41-8.26C165.57,422.1,167.47,421.22,167.47,421.22Z" transform="translate(-28.74)"/><path class="cls-12" d="M183.86,437.34s-.4,2.88,1.5,2.88h14.23c4.92,0,13.8-1.18,16.91-4.89s4.48-6.57,4.75-9.18-2.69-5.79-6.49-6.58-12.54,1.5-15.11,2.47-12.53,2.55-12.89,4S183.86,437.34,183.86,437.34Z" transform="translate(-28.74)"/><path class="cls-37" d="M186.42,335.62s-3.77-7.46,2.81-11.27c4.71-2.73,22.28-19,29-30.42,10.07-17.08-10.36-29.77-31.5-36.42-2,2.25-.29,6.69,1.35,8.87.81,1.08,16.41,13.41,17.31,16.94s-19.15,27-21.17,30.38S179.69,328.58,186.42,335.62Z" transform="translate(-28.74)"/><path class="cls-37" d="M143.33,315.74s2.23-2.36-4.35,1.46c-4.7,2.73-20.93,29.37-27.68,40.81-10.07,17.08,9.59,26.11,26.11,35.26,0,0,3.72-1.52,4.15-2.25s-1.28-2.53-.08-3,.78-1.39,0-2.47S125,372.14,124.12,368.61s19.15-27,21.17-30.38S150.05,322.78,143.33,315.74Z" transform="translate(-28.74)"/><path class="cls-37" d="M174.56,307.89c-9.61,1.52-6.91,1.5-16.59,0l-1.12.55-16.07,7.85,1.68,28.51q.16,2.41.31,4.64l.06,3s-1.11,23.65-.85,24.67,2.39,3.44,2.39,3.44c-.08.64-.18,1.33-.27,2,3.84,1.61,11,3.68,22.15,3.58,11.17.1,18.31-2,22.15-3.58-.1-.72-.19-1.4-.27-2,0,0,2.13-2.42,2.4-3.44s-.85-24.67-.85-24.67l.06-3q.16-2.23.31-4.64l1.68-28.51L203.08,291Z" transform="translate(-28.74)"/><path class="cls-5" d="M166,309l.36.05.39-.06c1.6-.06,3.43-.43,7.81-1.12l2.66-1.53c-4.28,11.4-13.43,13.11-21.88,3.95l-.71-.77,2.22-1.09,1.12-.55A81,81,0,0,0,166,309Z" transform="translate(-28.74)"/><path class="cls-29" d="M173,289.84l-.2,4.61v10.87a3.93,3.93,0,0,0,1.78,2.56c-5.92,6.42-10.68,6.42-16.6,0a3.92,3.92,0,0,0,1.79-2.56V294.45l-.2-4.61s3.3.59,6.71,1.43C169.67,290.44,173,289.84,173,289.84Z" transform="translate(-28.74)"/><path class="cls-34" d="M166.52,263.55h0a14.67,14.67,0,0,0-14.62,14.62v11.3a14.67,14.67,0,0,0,14.62,14.63h0a14.67,14.67,0,0,0,14.62-14.62v-11.3A14.67,14.67,0,0,0,166.52,263.55Z" transform="translate(-28.74)"/><path class="cls-15" d="M183.59,286.49a9.54,9.54,0,0,0,5.49-7.87s6.38-.22,8.09-3.86-14.7-21.53-21.23-24.57-17.22,4.16-17.22,4.16.52-3.41-.52-4.45-7.35.89-8.69,11.58c0,0-3.49-1.71-4.82-1.26s-1.11,3.42,1.63,5c0,0-5.42,2.67-5.86,6.31s4.9,3.56,4.9,3.56.07,8.61,4.23,10.84l2.3-1.26s1.22.26,1.22-1.86v-2.57s3.61-3.43,3.61-7.1c0,0,5.67,2.05,8.24,1.16s1.14-4.11,1.14-4.11,7.32,7,13.26,7.33v3.86c0,1.36.4,3.46,1.77,4.25Z" transform="translate(-28.74)"/><path class="cls-29" d="M181.14,291.24a4.45,4.45,0,0,0,0-8.91Z" transform="translate(-28.74)"/><path class="cls-29" d="M151.89,282.33a4.45,4.45,0,0,0,0,8.91Z" transform="translate(-28.74)"/><path class="cls-4" d="M210.93,353.68H121.59a2,2,0,0,0-2,2.46l8.89,47.37A3.12,3.12,0,0,0,131.4,406h69.71a3.12,3.12,0,0,0,2.93-2.47l8.89-47.37A2,2,0,0,0,210.93,353.68Z" transform="translate(-28.74)"/><path class="cls-38" d="M179.66,424.27a27.57,27.57,0,0,0,7.86,1.86c4.24.31,2.61,4.59,2.52,6.63s-2.43,5-3.45,5.08-8.79-2-8.79-2Z" transform="translate(-28.74)"/><path class="cls-15" d="M180.1,423.21s-56.54-26.33-66.26-29.86-20.5-3.89-24,6.36,1.94,17.32,19.08,24.21,65.46,13.78,67.32,13.52,2.21-.75,3.14-3.4a65,65,0,0,0,2-8.3C181.47,425,180.9,423.38,180.1,423.21Z" transform="translate(-28.74)"/><path class="cls-29" d="M169,298.31a.5.5,0,1,0,1,0,3.7,3.7,0,0,0-7.41,0,.5.5,0,1,0,1,0,2.7,2.7,0,0,1,5.4,0Z" transform="translate(-28.74)"/><path class="cls-3" d="M124.69,366.42l.83,4.43,3.32,17.71,1.21,6.47a2.75,2.75,0,0,0,.24.71A3.13,3.13,0,0,0,133,397.5H202.7a3.13,3.13,0,0,0,2.93-2.46l-.69,3.69-.9,4.79a3.12,3.12,0,0,1-2.93,2.47H142.68c-5.3-2.41-10.48-4.74-15-6.76l-.77-4.13-1.61-8.59-5.7-30.36a2,2,0,0,1,2-2.46h.72Z" transform="translate(-28.74)"/><path class="cls-39" d="M216.78,274.55c3.17,11.14-8,23.32-18.61,33.62a22.61,22.61,0,0,0-6.77,13.65l-.06,1.06c6.51-5,20.95-18.84,26.92-29C222.57,286.62,221.3,280.12,216.78,274.55Z" transform="translate(-28.74)"/><path class="cls-39" d="M142.19,342.39c-.06-4.49-1.15-5.94-1.15-5.94s-8.6,10-13.61,17.23h5.93C136.52,349.55,139.84,345.41,142.19,342.39Z" transform="translate(-28.74)"/><ellipse class="cls-23" cx="364.24" cy="321.21" rx="73.02" ry="4.11"/><path class="cls-40" d="M326.52,306.87a18,18,0,0,1,3-.23,5,5,0,0,1,3.39,1,3.25,3.25,0,0,1,1.06,2.53,3.56,3.56,0,0,1-.93,2.58,5,5,0,0,1-3.69,1.33,5.36,5.36,0,0,1-1.25-.11v4.84h-1.56Zm1.56,5.83a5.22,5.22,0,0,0,1.29.13c1.88,0,3-.91,3-2.58s-1.13-2.37-2.85-2.37a6.58,6.58,0,0,0-1.47.13Z" transform="translate(-28.74)"/><path class="cls-40" d="M336.51,315l-1.25,3.8h-1.61l4.11-12.08h1.88l4.12,12.08h-1.67L340.8,315Zm4-1.22-1.18-3.48c-.27-.79-.45-1.51-.63-2.21h0c-.18.72-.38,1.45-.61,2.19l-1.18,3.5Z" transform="translate(-28.74)"/><path class="cls-40" d="M354.46,318.27a11.25,11.25,0,0,1-3.71.66,5.68,5.68,0,0,1-6.2-6.1c0-3.6,2.49-6.24,6.54-6.24a7.47,7.47,0,0,1,3,.56l-.38,1.27a6.26,6.26,0,0,0-2.67-.52,4.52,4.52,0,0,0-4.86,4.86c0,3.07,1.85,4.88,4.66,4.88a5.08,5.08,0,0,0,2.08-.32v-3.6h-2.46v-1.25h4Z" transform="translate(-28.74)"/><path class="cls-40" d="M363.11,313.14h-4.7v4.36h5.24v1.31h-6.79V306.72h6.53V308h-5v3.82h4.7Z" transform="translate(-28.74)"/><path class="cls-40" d="M369.48,318.81V306.72h1.7l3.87,6.11a34.16,34.16,0,0,1,2.17,3.93l0,0c-.14-1.61-.18-3.08-.18-5v-5.06h1.47v12.08H377l-3.84-6.13a38.32,38.32,0,0,1-2.26-4l-.05,0c.09,1.52.13,3,.13,5v5.16Z" transform="translate(-28.74)"/><path class="cls-40" d="M391.61,312.64c0,4.16-2.53,6.37-5.61,6.37s-5.43-2.47-5.43-6.13c0-3.84,2.38-6.35,5.61-6.35S391.61,309.05,391.61,312.64Zm-9.38.2c0,2.58,1.4,4.89,3.85,4.89s3.87-2.28,3.87-5c0-2.4-1.25-4.91-3.86-4.91S382.23,310.18,382.23,312.84Z" transform="translate(-28.74)"/><path class="cls-40" d="M395.48,308h-3.67v-1.33h8.95V308h-3.69v10.76h-1.58Z" transform="translate(-28.74)"/><path class="cls-40" d="M405.91,306.72h6.51V308h-4.95v4H412v1.29h-4.57v5.47h-1.56Z" transform="translate(-28.74)"/><path class="cls-40" d="M425,312.64c0,4.16-2.53,6.37-5.61,6.37s-5.43-2.47-5.43-6.13c0-3.84,2.38-6.35,5.61-6.35S425,309.05,425,312.64Zm-9.38.2c0,2.58,1.4,4.89,3.86,4.89s3.87-2.28,3.87-5c0-2.4-1.25-4.91-3.85-4.91S415.59,310.18,415.59,312.84Z" transform="translate(-28.74)"/><path class="cls-40" d="M428.56,306.72v7.15c0,2.71,1.2,3.85,2.81,3.85,1.79,0,2.94-1.18,2.94-3.85v-7.15h1.58v7c0,3.71-2,5.24-4.57,5.24s-4.34-1.42-4.34-5.16v-7.12Z" transform="translate(-28.74)"/><path class="cls-40" d="M438.6,318.81V306.72h1.7l3.87,6.11a34.32,34.32,0,0,1,2.17,3.93l0,0c-.14-1.61-.18-3.08-.18-5v-5.06h1.47v12.08H446.1l-3.84-6.13a38.51,38.51,0,0,1-2.26-4l-.05,0c.09,1.52.13,3,.13,5v5.16Z" transform="translate(-28.74)"/><path class="cls-40" d="M450.4,306.88a22.33,22.33,0,0,1,3.32-.25,6.92,6.92,0,0,1,4.89,1.51,5.57,5.57,0,0,1,1.7,4.34,6.39,6.39,0,0,1-1.74,4.7,7.44,7.44,0,0,1-5.34,1.74,25.14,25.14,0,0,1-2.83-.14ZM452,317.57a9.77,9.77,0,0,0,1.58.09c3.33,0,5.15-1.86,5.15-5.13,0-2.85-1.6-4.66-4.89-4.66A8.84,8.84,0,0,0,452,308Z" transform="translate(-28.74)"/></g></svg>