<svg xmlns="http://www.w3.org/2000/svg" viewBox="0 0 485.38 298.28"><defs><style>.cls-1{isolation:isolate;}.cls-2{fill:#dce6ef;}.cls-3{fill:#6aa5fe;}.cls-14,.cls-15,.cls-16,.cls-4,.cls-6,.cls-8,.cls-9{fill:none;}.cls-14,.cls-4{stroke:#1a55b5;}.cls-4,.cls-6,.cls-8,.cls-9{stroke-linecap:round;stroke-linejoin:round;}.cls-4,.cls-6{stroke-width:0.87px;}.cls-5{fill:#ffc957;}.cls-6,.cls-9{stroke:#6aa5fe;}.cls-7{fill:#1a55b5;}.cls-8{stroke:#2a294f;stroke-width:0.78px;}.cls-10{fill:#527ee9;}.cls-11{fill:#f3f4f6;}.cls-12{fill:#2c6bc6;}.cls-13{fill:#cde1f9;}.cls-13,.cls-22,.cls-25,.cls-26{mix-blend-mode:multiply;}.cls-14,.cls-15,.cls-16{stroke-miterlimit:10;}.cls-15{stroke:#f3f4f6;}.cls-15,.cls-16{stroke-width:4px;}.cls-16{stroke:#ff746f;}.cls-17{fill:#ff746f;}.cls-18{fill:#2a294f;}.cls-19{fill:#fe9280;}.cls-20{fill:#e86767;}.cls-21{fill:#fff;}.cls-22,.cls-25,.cls-26{fill:#777470;}.cls-22{opacity:0.2;}.cls-23{fill:#fff4dd;}.cls-24{fill:#d3eaf5;}.cls-25{opacity:0.05;}.cls-26{opacity:0.15;}</style></defs><title>assessment-successful</title><g class="cls-1"><g id="OBJECTS"><path class="cls-2" d="M459.66,351.49c-3.67-9.42-6.41-19.42-9.4-30-2-7.12-5.27-15.08-12.31-17.32-6.85-2.18-14.24,2.34-18.45,8.17s-6.34,12.89-9.95,19.12c-6.54,11.28-18.11,16-27.68,6.09C368.2,323.4,362,304.09,353.38,286.81c-6.29-12.54-11.56-27.23-19.49-38.79-12.09-17.63-28.67-32.66-50.71-32.66-14,2.12-26.28,14.49-34.62,30s-13.19,33.86-17.33,52.21c-7.53,33.37-13.05,67.51-18.56,101.61l278.12-3.24c-1.11,0-7.92-9.1-9.23-10.36C470.88,375.2,464.47,363.84,459.66,351.49Z" transform="translate(-7.5 -100.86)"/><path class="cls-3" d="M406.87,367.39c-.55,10.81-12.31,29.71-23.12,29.17s-16.58-20.33-16-31.14S379.77,300.5,390.59,301,407.41,356.58,406.87,367.39Z" transform="translate(-7.5 -100.86)"/><line class="cls-4" x1="382.56" y1="207.22" x2="377.11" y2="294.83"/><path class="cls-5" d="M382.12,365.14a75.15,75.15,0,0,0-5.47,17c-.57,3-.94,6.25.42,9,1.48,3,4.77,4.73,8.06,5.27,8,1.32,16.07-3.6,20.78-10.25s6.75-14.76,8.62-22.69c1.47-6.24,2.92-12.57,5.7-18.39,1.19-2.49,8.17-12.12,4.87-14.61-4.51-3.55-17.58.31-25.95,9.45A97.56,97.56,0,0,0,382.12,365.14Z" transform="translate(-7.5 -100.86)"/><path class="cls-6" d="M385.13,396.38s9.7-37.77,33.13-59.43" transform="translate(-7.5 -100.86)"/><path class="cls-7" d="M439,356.23a9.5,9.5,0,0,1-3.8,3.3c-1.74,1-3.6,1.84-5.39,2.68a62,62,0,0,0-6.88,3.56,23.21,23.21,0,0,0-4.22,3.36,53.46,53.46,0,0,1,6.69-11.38c3.42-4.4,6.93-6.63,10.44-6.63H436a3.94,3.94,0,0,1,2.51.8C439.73,352.94,439.69,354.91,439,356.23Z" transform="translate(-7.5 -100.86)"/><path class="cls-7" d="M442.87,380.65A9.51,9.51,0,0,1,438,382c-2,.14-4,.13-6,.11a62,62,0,0,0-7.74.27,23.23,23.23,0,0,0-5.25,1.23,53.45,53.45,0,0,1,10.92-7.42c5-2.52,9.1-3,12.27-1.53l.22.11a3.94,3.94,0,0,1,1.93,1.8C445,378,444.1,379.78,442.87,380.65Z" transform="translate(-7.5 -100.86)"/><path class="cls-7" d="M433.62,392.67a6.5,6.5,0,0,1-3-1.6c-1.06-.86-2.07-1.83-3-2.76a42.38,42.38,0,0,0-4-3.49,15.87,15.87,0,0,0-3.19-1.85,36.53,36.53,0,0,1,8.91,1.43c3.65,1.08,5.95,2.76,6.82,5l.06.16a2.7,2.7,0,0,1,.12,1.8A2.45,2.45,0,0,1,433.62,392.67Z" transform="translate(-7.5 -100.86)"/><path class="cls-8" d="M407.32,396.6s.11-23.11,28.33-42.73" transform="translate(-7.5 -100.86)"/><path class="cls-8" d="M407.32,396.6S416,378,439.48,378" transform="translate(-7.5 -100.86)"/><path class="cls-8" d="M420.1,383.19s4.55-.33,14,6.83" transform="translate(-7.5 -100.86)"/><path class="cls-2" d="M164.8,396.8c-6.52-24.66-13.08-49.33-20.75-73.21-4.32-13.47-9.1-26.88-15.73-37.65s-15.41-18.72-24.23-18.67c-13.58,2.63-22.35,16-28.1,30.9-3.77,9.74-5.6,21.54-8.26,31.84-3.67,14.18-5.6,29.61-12.65,42-4.94,8.69-12.53,6.47-17.65-1.33-2.82-4.31-4.82-9.43-8-13.36s-8.15-6.49-12.16-4-5.36,9-5.92,14.65c-.82,8.39-1.55,16.32-2.9,23.93q-.44,2.48-1,4.92Z" transform="translate(-7.5 -100.86)"/><path class="cls-5" d="M106.47,362.76c-4.08-4.7-9.24-8.76-10.86-14.69-1.19-4.33-.25-8.92.21-13.39s.3-9.41-2.59-12.85c-2.38-2.84-6.15-4.07-9.77-4.84s-7.4-1.27-10.61-3.11c-5.22-3-4.18-8.08-7-12.54-3.14-5-10.46-11.4-16.72-8.07-6.64,3.52-5.59,14.22-1.17,18.94,2.93,3.13,6.68,6.14,7.11,10.4.65,6.42-6.71,12.21-4.69,18.34,1.5,4.53,7.2,6.08,10,9.93s2.23,9.14.58,13.56-4.23,8.51-5.25,13.12c-2.09,9.42,5.3,15.94,13.73,18,7.74,1.93,24.44,1,24.44,1a32,32,0,0,0,15.84-13,16.58,16.58,0,0,0,.9-14.4A24,24,0,0,0,106.47,362.76Z" transform="translate(-7.5 -100.86)"/><path class="cls-9" d="M56.57,303.41s28.51,44,31.61,92.94" transform="translate(-7.5 -100.86)"/><path class="cls-3" d="M31.17,362.81a3,3,0,0,1,1.9-.6h.18c2.65,0,5.31,1.69,7.89,5a40.42,40.42,0,0,1,5.06,8.6A17.56,17.56,0,0,0,43,373.28a46.89,46.89,0,0,0-5.2-2.69c-1.36-.63-2.76-1.28-4.08-2a7.19,7.19,0,0,1-2.87-2.49A2.71,2.71,0,0,1,31.17,362.81Z" transform="translate(-7.5 -100.86)"/><path class="cls-3" d="M26.79,381.46a3,3,0,0,1,1.46-1.36l.16-.08c2.4-1.14,5.52-.75,9.28,1.16a40.42,40.42,0,0,1,8.25,5.61,17.56,17.56,0,0,0-4-.93,46.92,46.92,0,0,0-5.86-.21c-1.5,0-3,0-4.55-.09a7.19,7.19,0,0,1-3.66-1A2.71,2.71,0,0,1,26.79,381.46Z" transform="translate(-7.5 -100.86)"/><path class="cls-3" d="M32.9,392.62a2,2,0,0,1,.09-1.36l0-.12c.66-1.69,2.39-3,5.16-3.78a27.62,27.62,0,0,1,6.74-1.08,12,12,0,0,0-2.41,1.4,32,32,0,0,0-3,2.64c-.74.71-1.5,1.44-2.3,2.09a4.91,4.91,0,0,1-2.3,1.21A1.85,1.85,0,0,1,32.9,392.62Z" transform="translate(-7.5 -100.86)"/><path class="cls-8" d="M54.78,396.6s-.08-17.48-21.42-32.31" transform="translate(-7.5 -100.86)"/><path class="cls-8" d="M54.78,396.6s-6.55-14-24.32-14" transform="translate(-7.5 -100.86)"/><path class="cls-8" d="M45.12,386.46s-3.44-.25-10.62,5.17" transform="translate(-7.5 -100.86)"/><rect class="cls-3" x="78.63" y="21.69" width="207.06" height="274.05" rx="9.45" ry="9.45"/><path class="cls-10" d="M86.13,189.31V387.15a9.45,9.45,0,0,0,9.45,9.45H283.74a9.45,9.45,0,0,0,9.45-9.45v-39Z" transform="translate(-7.5 -100.86)"/><rect class="cls-11" x="90.66" y="34.33" width="183" height="248.76" rx="3.86" ry="3.86"/><path class="cls-7" d="M205.36,117.37c0-.26,0-.51,0-.78a15.74,15.74,0,1,0-31.47,0c0,.26,0,.52,0,.78H150.83v24h77.66v-24Z" transform="translate(-7.5 -100.86)"/><polygon class="cls-12" points="143.32 16.51 143.32 40.5 220.99 40.5 143.32 16.51"/><circle class="cls-10" cx="182.15" cy="15.74" r="8.84"/><path class="cls-3" d="M183.41,110.35a8.84,8.84,0,1,0,12.5,12.5Z" transform="translate(-7.5 -100.86)"/><rect class="cls-13" x="143.33" y="40.5" width="77.66" height="1.65"/><rect class="cls-14" x="111.8" y="73.72" width="29.45" height="29.45"/><polyline class="cls-15" points="120.42 89.95 129.43 97.03 147.74 79.38"/><polyline class="cls-16" points="118.42 87.95 127.43 95.03 145.74 77.38"/><path class="cls-3" d="M258.88,182.94h-96a1.13,1.13,0,0,1-1.13-1.13h0a1.13,1.13,0,0,1,1.13-1.13h96a1.13,1.13,0,0,1,1.13,1.13h0A1.13,1.13,0,0,1,258.88,182.94Z" transform="translate(-7.5 -100.86)"/><path class="cls-3" d="M258.88,187.94h-96a1.13,1.13,0,0,1-1.13-1.13h0a1.13,1.13,0,0,1,1.13-1.13h96a1.13,1.13,0,0,1,1.13,1.13h0A1.13,1.13,0,0,1,258.88,187.94Z" transform="translate(-7.5 -100.86)"/><path class="cls-3" d="M258.88,192.94h-96a1.13,1.13,0,0,1-1.13-1.13h0a1.13,1.13,0,0,1,1.13-1.13h96a1.13,1.13,0,0,1,1.13,1.13h0A1.13,1.13,0,0,1,258.88,192.94Z" transform="translate(-7.5 -100.86)"/><path class="cls-3" d="M258.88,197.94h-96a1.13,1.13,0,0,1-1.13-1.13h0a1.13,1.13,0,0,1,1.13-1.13h96a1.13,1.13,0,0,1,1.13,1.13h0A1.13,1.13,0,0,1,258.88,197.94Z" transform="translate(-7.5 -100.86)"/><rect class="cls-14" x="111.8" y="121.14" width="29.45" height="29.45"/><polyline class="cls-15" points="120.42 137.37 129.43 144.44 147.74 126.8"/><polyline class="cls-16" points="118.42 135.37 127.43 142.44 145.74 124.8"/><path class="cls-3" d="M258.88,230.36h-96a1.13,1.13,0,0,1-1.13-1.13h0a1.13,1.13,0,0,1,1.13-1.13h96a1.13,1.13,0,0,1,1.13,1.13h0A1.13,1.13,0,0,1,258.88,230.36Z" transform="translate(-7.5 -100.86)"/><path class="cls-3" d="M258.88,235.36h-96a1.13,1.13,0,0,1-1.13-1.13h0a1.13,1.13,0,0,1,1.13-1.13h96a1.13,1.13,0,0,1,1.13,1.13h0A1.13,1.13,0,0,1,258.88,235.36Z" transform="translate(-7.5 -100.86)"/><path class="cls-3" d="M258.88,240.36h-96a1.13,1.13,0,0,1-1.13-1.13h0a1.13,1.13,0,0,1,1.13-1.13h96a1.13,1.13,0,0,1,1.13,1.13h0A1.13,1.13,0,0,1,258.88,240.36Z" transform="translate(-7.5 -100.86)"/><path class="cls-3" d="M258.88,245.36h-96a1.13,1.13,0,0,1-1.13-1.13h0a1.13,1.13,0,0,1,1.13-1.13h96a1.13,1.13,0,0,1,1.13,1.13h0A1.13,1.13,0,0,1,258.88,245.36Z" transform="translate(-7.5 -100.86)"/><rect class="cls-14" x="111.8" y="168.56" width="29.45" height="29.45"/><polyline class="cls-15" points="120.42 184.79 129.43 191.86 147.74 174.22"/><polyline class="cls-16" points="118.42 182.79 127.43 189.86 145.74 172.22"/><path class="cls-3" d="M258.88,277.78h-96a1.13,1.13,0,0,1-1.13-1.13h0a1.13,1.13,0,0,1,1.13-1.13h96a1.13,1.13,0,0,1,1.13,1.13h0A1.13,1.13,0,0,1,258.88,277.78Z" transform="translate(-7.5 -100.86)"/><path class="cls-3" d="M258.88,282.78h-96a1.13,1.13,0,0,1-1.13-1.13h0a1.13,1.13,0,0,1,1.13-1.13h96a1.13,1.13,0,0,1,1.13,1.13h0A1.13,1.13,0,0,1,258.88,282.78Z" transform="translate(-7.5 -100.86)"/><path class="cls-3" d="M258.88,287.78h-96a1.13,1.13,0,0,1-1.13-1.13h0a1.13,1.13,0,0,1,1.13-1.13h96a1.13,1.13,0,0,1,1.13,1.13h0A1.13,1.13,0,0,1,258.88,287.78Z" transform="translate(-7.5 -100.86)"/><path class="cls-3" d="M258.88,292.78h-96a1.13,1.13,0,0,1-1.13-1.13h0a1.13,1.13,0,0,1,1.13-1.13h96a1.13,1.13,0,0,1,1.13,1.13h0A1.13,1.13,0,0,1,258.88,292.78Z" transform="translate(-7.5 -100.86)"/><rect class="cls-14" x="111.8" y="215.98" width="29.45" height="29.45"/><polyline class="cls-15" points="120.42 232.21 129.43 239.28 147.74 221.64"/><polyline class="cls-16" points="118.42 230.21 127.43 237.28 145.74 219.64"/><path class="cls-3" d="M258.88,325.2h-96a1.13,1.13,0,0,1-1.13-1.13h0a1.13,1.13,0,0,1,1.13-1.13h96a1.13,1.13,0,0,1,1.13,1.13h0A1.13,1.13,0,0,1,258.88,325.2Z" transform="translate(-7.5 -100.86)"/><path class="cls-3" d="M258.88,330.2h-96a1.13,1.13,0,0,1-1.13-1.13h0a1.13,1.13,0,0,1,1.13-1.13h96a1.13,1.13,0,0,1,1.13,1.13h0A1.13,1.13,0,0,1,258.88,330.2Z" transform="translate(-7.5 -100.86)"/><path class="cls-3" d="M258.88,335.2h-96a1.13,1.13,0,0,1-1.13-1.13h0a1.13,1.13,0,0,1,1.13-1.13h96a1.13,1.13,0,0,1,1.13,1.13h0A1.13,1.13,0,0,1,258.88,335.2Z" transform="translate(-7.5 -100.86)"/><path class="cls-3" d="M258.88,340.2h-96a1.13,1.13,0,0,1-1.13-1.13h0a1.13,1.13,0,0,1,1.13-1.13h96a1.13,1.13,0,0,1,1.13,1.13h0A1.13,1.13,0,0,1,258.88,340.2Z" transform="translate(-7.5 -100.86)"/><line class="cls-8" x1="0.87" y1="295.73" x2="484.99" y2="295.73"/><rect class="cls-17" x="305.96" y="286.8" width="4.56" height="5.62"/><polygon class="cls-18" points="306 291.14 308.38 291.88 310.6 291.14 312.59 295.71 294.14 295.71 301.08 293.43 306 291.14"/><polygon class="cls-17" points="353.8 292.42 358.37 292.42 356.67 286.8 352.11 286.8 353.8 292.42"/><polygon class="cls-18" points="357.96 291.14 355.57 291.88 353.36 291.14 351.37 295.71 369.81 295.71 362.88 293.43 357.96 291.14"/><path class="cls-19" d="M303.22,197.6c-.62.47-6.23,3.79-6.23,3.79l-4-5.1,1.19-5.82,8.57.53,1.5,4.34C304.63,196.37,304,197,303.22,197.6Z" transform="translate(-7.5 -100.86)"/><path class="cls-20" d="M302.77,191l1.29,3.81-4,1.59a3.63,3.63,0,0,1-5-3.77l.26-2.09Z" transform="translate(-7.5 -100.86)"/><path class="cls-17" d="M300.83,196.09l3.43.5,1.88-3.22a1.24,1.24,0,0,0-.39-1.72h0A1.24,1.24,0,0,0,304,192Z" transform="translate(-7.5 -100.86)"/><polygon class="cls-21" points="287.15 109.1 280.08 110.89 277.56 131.36 285.83 131.69 287.15 109.1"/><path class="cls-19" d="M391.17,226.46l-12.36-1.56,2.83-22.47L394,204a11.32,11.32,0,0,1,9.82,12.65h0A11.32,11.32,0,0,1,391.17,226.46Z" transform="translate(-7.5 -100.86)"/><path class="cls-22" d="M391.81,221.34l-12.36-1.56-.64,5.12,12.36,1.56A11.32,11.32,0,0,0,403.84,214,11.32,11.32,0,0,1,391.81,221.34Z" transform="translate(-7.5 -100.86)"/><polygon class="cls-5" points="369.8 123.85 238.71 106.94 241.53 84.48 372.63 101.39 369.8 123.85"/><polygon class="cls-23" points="215.35 92.59 238.71 106.94 241.53 84.48 215.35 92.59"/><polygon class="cls-22" points="215.35 92.59 238.71 106.94 239.4 101.45 215.35 92.59"/><polygon class="cls-18" points="223.15 90.17 215.35 92.59 222.31 96.86 223.15 90.17"/><rect class="cls-24" x="378.68" y="202.84" width="10.94" height="22.64" transform="translate(22.26 -147.17) rotate(7.18)"/><rect class="cls-24" x="385.85" y="202.32" width="3.74" height="24.58" transform="translate(22.34 -147.61) rotate(7.17)"/><polygon class="cls-22" points="376.94 124.75 238.71 106.94 239.4 101.45 377.64 119.26 376.94 124.75"/><polygon class="cls-25" points="379.08 107.78 240.84 89.97 241.53 84.48 379.77 102.29 379.08 107.78"/><rect class="cls-26" x="384.78" y="219.32" width="3.74" height="7.51" transform="translate(23.38 -147.41) rotate(7.17)"/><path class="cls-20" d="M342.3,280.44l1.85-4.79,6.24-.51a2,2,0,0,1,2.28,1.55h0a2,2,0,0,1-1.88,2Z" transform="translate(-7.5 -100.86)"/><path class="cls-17" d="M339.07,275.69l3.23,4.75,6.12-1.26L341.56,269l-1.32.88A4.19,4.19,0,0,0,339.07,275.69Z" transform="translate(-7.5 -100.86)"/><polygon class="cls-21" points="336.62 173.22 357.42 151.43 346.46 148.88 334.06 168.14 336.62 173.22"/><circle class="cls-21" cx="361.2" cy="249.35" r="4.75" transform="translate(-79.01 74.95) rotate(-24.97)"/><path class="cls-21" d="M358.5,253.25l6.43-6.85-22.43-26.6a5.33,5.33,0,0,0-8-.64h0c-2.31,2.27-2.09,10.31.49,12.28Z" transform="translate(-7.5 -100.86)"/><rect class="cls-17" x="322.38" y="207.56" width="9.23" height="14.64" transform="matrix(-1, -0.08, 0.08, -1, 627.18, 355.71)"/><circle class="cls-21" cx="289.03" cy="233.25" r="4.14" transform="translate(-22.45 -81.02) rotate(-3.83)"/><path class="cls-21" d="M286.15,229.73l4.19,7.45L316,231.42c3.14-.8,4.85-8.44,3.61-11.44h0a5.33,5.33,0,0,0-7.63-2.55Z" transform="translate(-7.5 -100.86)"/><path class="cls-21" d="M339.14,271.94l2.79-48.81a4.51,4.51,0,0,0-3.76-5.56l-22.87-.83a4.51,4.51,0,0,0-5.11,4.36l-4.68,59.33Z" transform="translate(-7.5 -100.86)"/><polygon class="cls-7" points="309.76 171.08 315.03 187.5 312.69 289.34 303.29 289.34 298 179.57 298.72 171.08 309.76 171.08"/><polygon class="cls-10" points="309.76 171.08 314.9 191.25 318.61 191.25 351.75 289.34 359.45 289.34 336.12 184.39 331.63 171.08 309.76 171.08"/><path class="cls-17" d="M299.41,188.17h1a0,0,0,0,1,0,0v8.76a0,0,0,0,1,0,0h-1a3.6,3.6,0,0,1-3.6-3.6v-1.56A3.6,3.6,0,0,1,299.41,188.17Z" transform="translate(53.08 355.37) rotate(-80.85)"/><polygon class="cls-7" points="313.47 116.08 320.17 116.33 317.45 120.4 317.45 152.81 313.52 161.09 309.9 151.12 314.94 120.14 313.47 116.08"/><path class="cls-7" d="M339.25,196a11.28,11.28,0,0,0-2.44-6,10.81,10.81,0,0,0-5-3.35,6.6,6.6,0,0,0-2.8-.37,6.8,6.8,0,0,1-3.56-.25c-1.61-.71-2.76-2.1-4.21-3a5.26,5.26,0,0,0-1.09-.51h0a5.37,5.37,0,0,0-5,.57,5.31,5.31,0,0,0-1.69,2,6.65,6.65,0,0,0-.75,2.48,8.26,8.26,0,0,0,1.24,5,9.67,9.67,0,0,0,3.4,3.27,10.07,10.07,0,0,0-.12,1.09,11,11,0,0,0,20.78,5.62A11.58,11.58,0,0,0,339.25,196Zm-23-2.08a14.74,14.74,0,0,1-1.44-1.93,7.74,7.74,0,0,1-1.36-4.47,5.72,5.72,0,0,1,2-4.16,4.3,4.3,0,0,1,1.62-.8,3.6,3.6,0,0,0-.84.52,5.72,5.72,0,0,0-1.77,4.06,9.72,9.72,0,0,0,3.09,7.87l0,.12A11.79,11.79,0,0,1,316.21,193.93Z" transform="translate(-7.5 -100.86)"/><circle class="cls-17" cx="336.15" cy="203.05" r="2.1" transform="translate(72.47 399.84) rotate(-80.42)"/><path class="cls-17" d="M325.12,191a7.46,7.46,0,0,0-6.77,4l-.27,1.44-.22,1.28c0,.06,0,.12,0,.18l0,0-.6,3.57a9.26,9.26,0,0,0,7.22,10.72A9,9,0,0,0,335,204.78l.74-4.38h0S337.15,191.81,325.12,191Z" transform="translate(-7.5 -100.86)"/><path class="cls-21" d="M326.07,202.58c-.54-.34-4.1-1-4.53-.76a1.26,1.26,0,0,0-.53,1.38,2.18,2.18,0,0,0,.94,1.24,3.55,3.55,0,0,0,3.44.28,1.9,1.9,0,0,0,1-.91A1,1,0,0,0,326.07,202.58Z" transform="translate(-7.5 -100.86)"/><path class="cls-7" d="M327.07,191.2a16.77,16.77,0,0,1,3.56,1,8,8,0,0,1,2.37,1.36c2.26,2,.25,6.21-.53,8.41-.19.54-.41,1.18-.07,1.64a1.19,1.19,0,0,0,1.66,0,5.59,5.59,0,0,0,1-1.52A2,2,0,0,1,336.5,201l-.36-10c0-.07-6.29-.21-6.77-.23A7.43,7.43,0,0,0,327.07,191.2Z" transform="translate(-7.5 -100.86)"/></g></g></svg>