<svg xmlns="http://www.w3.org/2000/svg" viewBox="0 0 412.72 392.11"><defs><style>.cls-1{fill:#fff;}.cls-2{fill:#2c3e50;}.cls-3{fill:#f5b7b1;}.cls-4,.cls-5{fill:none;stroke:#2c3e50;stroke-miterlimit:10;stroke-width:2.35px;}.cls-5{stroke-linecap:round;}</style></defs><title>avatar</title><g id="OBJECTS"><rect class="cls-1" width="412.72" height="392.11"/><path class="cls-2" d="M272.41,159.19a12.81,12.81,0,0,0-4.5-9.75,12.82,12.82,0,0,0-6-18.55,12.82,12.82,0,0,0-11.47-15.78,12.82,12.82,0,0,0-15.78-11.47,12.82,12.82,0,0,0-18.55-6,12.82,12.82,0,0,0-19.51,0,12.82,12.82,0,0,0-18.55,6,12.82,12.82,0,0,0-15.78,11.47,12.82,12.82,0,0,0-11.47,15.78,12.82,12.82,0,0,0-6,18.55,12.82,12.82,0,0,0,0,19.51,12.82,12.82,0,0,0,6,18.55,12.82,12.82,0,0,0,11.47,15.78A12.82,12.82,0,0,0,178,214.75a12.81,12.81,0,0,0,7.89,7.29c.29.09.59.16.88.23V211.18a27.67,27.67,0,0,1-14.66-19h-2.33a9.58,9.58,0,0,1,0-19.16h1.74V159.06a24.93,24.93,0,0,1,24.93-24.93h19.71a24.93,24.93,0,0,1,24.93,24.93v14.23l0-.29h1.74a9.58,9.58,0,1,1,0,19.16h-2.36a27.67,27.67,0,0,1-14.6,19v11.1c.28-.07.55-.13.83-.22a12.81,12.81,0,0,0,7.89-7.29,12.82,12.82,0,0,0,15.78-11.47,12.82,12.82,0,0,0,11.47-15.78,12.82,12.82,0,0,0,6-18.55A12.81,12.81,0,0,0,272.41,159.19Z"/><circle class="cls-3" cx="182.86" cy="182.58" r="3.9"/><circle class="cls-3" cx="229.8" cy="182.58" r="3.9"/><path class="cls-4" d="M241.11,186.5a27.65,27.65,0,0,1-27.65,27.65H199.2a27.65,27.65,0,0,1-27.65-27.65V159.06a24.93,24.93,0,0,1,24.93-24.93h19.71a24.93,24.93,0,0,1,24.93,24.93Z"/><path class="cls-4" d="M171.55,173h-1.74a9.58,9.58,0,0,0-9.58,9.58h0a9.58,9.58,0,0,0,9.58,9.58h2.33"/><path class="cls-4" d="M241.15,173h1.74a9.58,9.58,0,0,1,9.58,9.58h0a9.58,9.58,0,0,1-9.58,9.58h-1.78"/><path class="cls-4" d="M186.79,211.75v11.08a19.57,19.57,0,0,0,19.57,19.57h0a19.57,19.57,0,0,0,19.57-19.57V211.75"/><path class="cls-5" d="M186.79,222.83l-31.07,17.94A27.86,27.86,0,0,0,142.07,261l-5.35,37.65"/><path class="cls-5" d="M225.93,222.83,257,240.77A27.86,27.86,0,0,1,270.65,261L276,298.63"/><path class="cls-2" d="M211.38,215l-24.58,5.62v-8.82s.85.44,2.88,1.31S205.46,215.92,211.38,215Z"/><path class="cls-3" d="M188.12,186.06h36.42v.28a18.21,18.21,0,0,1-18.21,18.21h0a18.21,18.21,0,0,1-18.21-18.21Z"/><circle class="cls-2" cx="190.68" cy="168.81" r="3.92"/><circle class="cls-2" cx="221.98" cy="168.81" r="3.92"/><rect class="cls-4" x="178.38" y="160.97" width="24.6" height="15.68" rx="3.62" ry="3.62"/><rect class="cls-4" x="209.68" y="160.97" width="24.6" height="15.68" rx="3.62" ry="3.62"/><line class="cls-4" x1="178.38" y1="165" x2="171.55" y2="165"/><line class="cls-4" x1="234.28" y1="165" x2="241.11" y2="165"/><line class="cls-4" x1="202.99" y1="165" x2="209.68" y2="165"/><path class="cls-5" d="M196.8,157.11a14.21,14.21,0,0,0-16.17-.19"/><path class="cls-5" d="M213.9,157.11a14.21,14.21,0,0,1,16.17-.19"/><path class="cls-5" d="M207.25,176.65s2.79,2.39,2.63,4.76-3.54,1.81-3.54,1.81"/><line class="cls-5" x1="155.72" y1="240.77" x2="155.72" y2="298.63"/><line class="cls-5" x1="257" y1="240.77" x2="257" y2="298.63"/><path class="cls-5" d="M180.63,232.76s4.72,16.33,27.48,16.33c19.17,0,21.69-16.33,21.69-16.33"/><path class="cls-5" d="M178.38,260.73s20,32.66,48,38.27"/></g></svg>