<svg width="90" height="106" viewBox="0 0 90 106" fill="none" xmlns="http://www.w3.org/2000/svg">
<rect x="32.3608" y="38.7195" width="10.744" height="24.5144" rx="2.7907" transform="rotate(-118.883 32.3608 38.7195)" fill="#31D283"/>
<rect x="25.1895" y="25.5723" width="10.744" height="33.4659" rx="2.7907" transform="rotate(-118.883 25.1895 25.5723)" fill="#5ABEFD"/>
<rect x="39.5342" y="51.8668" width="10.744" height="33.4659" rx="2.7907" transform="rotate(-118.883 39.5342 51.8668)" fill="#2B3C4E"/>
<path d="M12.2913 89.0948C12.2913 88.5924 12.218 88.1215 12.0715 87.682C11.9355 87.232 11.7262 86.8395 11.4436 86.5046C11.161 86.1698 10.8 85.9081 10.3605 85.7198C9.9314 85.5209 9.42907 85.4215 8.85349 85.4215C7.73372 85.4215 6.84942 85.7407 6.20058 86.3791C5.56221 87.0174 5.15407 87.9227 4.97616 89.0948H12.2913ZM4.89767 91.4337C4.96047 92.2605 5.10698 92.9773 5.33721 93.5843C5.56744 94.1808 5.87093 94.6779 6.24768 95.0756C6.62442 95.4628 7.06919 95.7558 7.58198 95.9547C8.10523 96.143 8.68082 96.2372 9.30872 96.2372C9.93663 96.2372 10.4756 96.164 10.9256 96.0174C11.386 95.8709 11.7837 95.7087 12.1186 95.5308C12.464 95.3529 12.7622 95.1907 13.0134 95.0442C13.275 94.8977 13.5262 94.8244 13.7669 94.8244C14.0913 94.8244 14.332 94.9448 14.489 95.1855L15.6035 96.5983C15.1744 97.1006 14.693 97.5244 14.1593 97.8698C13.6256 98.2047 13.0657 98.4767 12.4797 98.686C11.9041 98.8849 11.3128 99.0262 10.7058 99.1099C10.1093 99.1936 9.52849 99.2355 8.96337 99.2355C7.84361 99.2355 6.80233 99.0523 5.83954 98.686C4.87674 98.3093 4.03954 97.7599 3.32791 97.0378C2.61628 96.3052 2.0564 95.4052 1.64826 94.3378C1.24012 93.2599 1.03605 92.0145 1.03605 90.6017C1.03605 89.5029 1.21395 88.4721 1.56977 87.5093C1.92558 86.536 2.43314 85.6936 3.09244 84.982C3.76221 84.2599 4.57326 83.6895 5.52558 83.2709C6.48837 82.8523 7.57151 82.643 8.775 82.643C9.79012 82.643 10.7267 82.8052 11.5849 83.1296C12.443 83.4541 13.1808 83.9302 13.7983 84.5581C14.4157 85.1756 14.8971 85.9395 15.2424 86.85C15.5983 87.75 15.7762 88.7808 15.7762 89.9424C15.7762 90.5285 15.7134 90.9262 15.5878 91.1355C15.4622 91.3343 15.2215 91.4337 14.8657 91.4337H4.89767ZM21.6841 84.8721C22.0086 84.5477 22.3487 84.2494 22.7045 83.9773C23.0708 83.6948 23.4527 83.4593 23.8504 83.2709C24.2586 83.0721 24.6929 82.9203 25.1533 82.8157C25.6138 82.7006 26.1161 82.643 26.6603 82.643C27.5394 82.643 28.319 82.7948 28.9993 83.0983C29.6795 83.3913 30.2446 83.8099 30.6946 84.3541C31.1551 84.8878 31.5004 85.5314 31.7306 86.2849C31.9713 87.0279 32.0917 87.8494 32.0917 88.7494V99H28.2144V88.7494C28.2144 87.7657 27.9894 87.007 27.5394 86.4733C27.0894 85.9291 26.4039 85.657 25.483 85.657C24.8132 85.657 24.1853 85.8087 23.5992 86.1122C23.0132 86.4157 22.4586 86.8291 21.9353 87.3523V99H18.058V82.8942H20.4283C20.9306 82.8942 21.2603 83.1296 21.4173 83.6006L21.6841 84.8721ZM49.3523 82.8942L40.5773 103.427C40.4621 103.699 40.3104 103.903 40.122 104.039C39.9441 104.185 39.6668 104.259 39.2901 104.259H36.4017L39.4156 97.7913L32.9011 82.8942H36.3075C36.611 82.8942 36.8465 82.9674 37.0139 83.114C37.1918 83.2605 37.3226 83.4279 37.4063 83.6163L40.8284 91.9674C40.9435 92.25 41.0377 92.5326 41.111 92.8151C41.1947 93.0977 41.2732 93.3855 41.3465 93.6785C41.4406 93.3855 41.5348 93.0977 41.629 92.8151C41.7232 92.5221 41.8278 92.2343 41.943 91.9517L45.1767 83.6163C45.2604 83.407 45.3965 83.2343 45.5848 83.0983C45.7837 82.9622 46.0034 82.8942 46.2441 82.8942H49.3523ZM58.7905 92.1244C57.6707 92.1767 56.7289 92.2762 55.9649 92.4227C55.201 92.5587 54.5887 92.7366 54.1283 92.9564C53.6678 93.1762 53.3382 93.4326 53.1393 93.7256C52.9405 94.0186 52.8411 94.3378 52.8411 94.6831C52.8411 95.3634 53.0399 95.85 53.4376 96.143C53.8457 96.436 54.3742 96.5826 55.0231 96.5826C55.8184 96.5826 56.5039 96.4413 57.0794 96.1587C57.6655 95.8657 58.2358 95.4262 58.7905 94.8401V92.1244ZM49.9056 85.139C51.7579 83.4436 53.987 82.5959 56.5928 82.5959C57.5347 82.5959 58.3771 82.7529 59.1201 83.0669C59.8632 83.3703 60.4911 83.7994 61.0039 84.3541C61.5167 84.8983 61.9039 85.5523 62.1655 86.3163C62.4376 87.0802 62.5736 87.9174 62.5736 88.8279V99H60.8155C60.4492 99 60.1667 98.9477 59.9678 98.843C59.769 98.7279 59.612 98.5029 59.4969 98.168L59.1515 97.0064C58.7434 97.3727 58.3457 97.6971 57.9585 97.9797C57.5713 98.2517 57.1684 98.482 56.7498 98.6703C56.3312 98.8587 55.8812 99 55.3998 99.0942C54.9289 99.1988 54.4056 99.2512 53.83 99.2512C53.1498 99.2512 52.5219 99.1622 51.9463 98.9843C51.3707 98.7959 50.8736 98.5186 50.455 98.1523C50.0364 97.786 49.712 97.3308 49.4818 96.7866C49.2515 96.2424 49.1364 95.6093 49.1364 94.8872C49.1364 94.4791 49.2044 94.0762 49.3405 93.6785C49.4765 93.2703 49.6963 92.8831 49.9998 92.5169C50.3137 92.1506 50.7167 91.8052 51.2085 91.4808C51.7004 91.1564 52.3021 90.8738 53.0137 90.6331C53.7358 90.3924 54.5731 90.1988 55.5254 90.0523C56.4777 89.8953 57.5661 89.8012 58.7905 89.7698V88.8279C58.7905 87.75 58.5603 86.9546 58.0998 86.4419C57.6393 85.9186 56.9748 85.657 56.1062 85.657C55.4783 85.657 54.955 85.7302 54.5364 85.8767C54.1283 86.0233 53.7672 86.1907 53.4533 86.3791C53.1393 86.557 52.8515 86.7192 52.5899 86.8657C52.3387 87.0122 52.0562 87.0855 51.7422 87.0855C51.4701 87.0855 51.2399 87.0174 51.0515 86.8814C50.8632 86.7349 50.7114 86.5674 50.5963 86.3791L49.9056 85.139ZM70.7514 99.2512C69.3491 99.2512 68.2712 98.8587 67.5177 98.0738C66.7746 97.2785 66.4031 96.1849 66.4031 94.793V85.7983H64.7549C64.5456 85.7983 64.3677 85.7302 64.2212 85.5942C64.0746 85.4581 64.0014 85.2541 64.0014 84.982V83.4436L66.5915 83.0198L67.4078 78.6244C67.4601 78.4151 67.5595 78.2529 67.706 78.1378C67.8526 78.0227 68.0409 77.9651 68.2712 77.9651H70.2805V83.0355H74.5816V85.7983H70.2805V94.5262C70.2805 95.0285 70.4008 95.4209 70.6415 95.7035C70.8927 95.986 71.2328 96.1273 71.6619 96.1273C71.9026 96.1273 72.1014 96.1012 72.2584 96.0488C72.4258 95.986 72.5671 95.9233 72.6822 95.8605C72.8078 95.7977 72.9177 95.7401 73.0119 95.6878C73.106 95.625 73.2002 95.5936 73.2944 95.5936C73.4095 95.5936 73.5037 95.625 73.577 95.6878C73.6502 95.7401 73.7287 95.8238 73.8124 95.939L74.9741 97.8227C74.4089 98.2936 73.7601 98.6494 73.0276 98.8901C72.295 99.1308 71.5363 99.2512 70.7514 99.2512ZM84.9443 92.1244C83.8245 92.1767 82.8827 92.2762 82.1187 92.4227C81.3548 92.5587 80.7425 92.7366 80.2821 92.9564C79.8216 93.1762 79.492 93.4326 79.2931 93.7256C79.0943 94.0186 78.9949 94.3378 78.9949 94.6831C78.9949 95.3634 79.1937 95.85 79.5914 96.143C79.9995 96.436 80.528 96.5826 81.1768 96.5826C81.9722 96.5826 82.6577 96.4413 83.2332 96.1587C83.8193 95.8657 84.3896 95.4262 84.9443 94.8401V92.1244ZM76.0594 85.139C77.9117 83.4436 80.1408 82.5959 82.7466 82.5959C83.6885 82.5959 84.5309 82.7529 85.2739 83.0669C86.017 83.3703 86.6449 83.7994 87.1577 84.3541C87.6705 84.8983 88.0577 85.5523 88.3193 86.3163C88.5914 87.0802 88.7274 87.9174 88.7274 88.8279V99H86.9693C86.603 99 86.3205 98.9477 86.1216 98.843C85.9228 98.7279 85.7658 98.5029 85.6507 98.168L85.3053 97.0064C84.8972 97.3727 84.4995 97.6971 84.1123 97.9797C83.7251 98.2517 83.3222 98.482 82.9036 98.6703C82.485 98.8587 82.035 99 81.5536 99.0942C81.0827 99.1988 80.5594 99.2512 79.9838 99.2512C79.3036 99.2512 78.6757 99.1622 78.1001 98.9843C77.5245 98.7959 77.0274 98.5186 76.6088 98.1523C76.1902 97.786 75.8658 97.3308 75.6356 96.7866C75.4053 96.2424 75.2902 95.6093 75.2902 94.8872C75.2902 94.4791 75.3582 94.0762 75.4943 93.6785C75.6303 93.2703 75.8501 92.8831 76.1536 92.5169C76.4675 92.1506 76.8705 91.8052 77.3623 91.4808C77.8542 91.1564 78.4559 90.8738 79.1675 90.6331C79.8896 90.3924 80.7268 90.1988 81.6792 90.0523C82.6315 89.8953 83.7199 89.8012 84.9443 89.7698V88.8279C84.9443 87.75 84.7141 86.9546 84.2536 86.4419C83.7931 85.9186 83.1286 85.657 82.26 85.657C81.6321 85.657 81.1088 85.7302 80.6902 85.8767C80.2821 86.0233 79.921 86.1907 79.6071 86.3791C79.2931 86.557 79.0053 86.7192 78.7437 86.8657C78.4925 87.0122 78.21 87.0855 77.896 87.0855C77.6239 87.0855 77.3937 87.0174 77.2053 86.8814C77.017 86.7349 76.8652 86.5674 76.7501 86.3791L76.0594 85.139Z" fill="#2B3C4E"/>
</svg>
