<svg id="Layer_1" data-name="Layer 1" xmlns="http://www.w3.org/2000/svg" viewBox="0 0 15 9"><defs><style>.cls-1{fill:#4f4f4f;opacity:0.4;isolation:isolate;}</style></defs><title>eye-slashed</title><path class="cls-1" d="M4.35,4.09A3.09,3.09,0,0,1,7.29,1.27a3.24,3.24,0,0,1,2.09.59L10.56.6A8.14,8.14,0,0,0,7.5,0,9.45,9.45,0,0,0,.12,3.94a.54.54,0,0,0,0,.68,10.65,10.65,0,0,0,3.74,3.1L5.17,6.33A2.91,2.91,0,0,1,4.35,4.09Z" transform="translate(0)"/><path class="cls-1" d="M14.88,4a11,11,0,0,0-3-2.67l.64-.61L11.81,0,4,8.33,4.65,9l.66-.73a8.16,8.16,0,0,0,2.19.3,9.45,9.45,0,0,0,7.38-3.94A.54.54,0,0,0,14.88,4ZM7.71,7.3A3.32,3.32,0,0,1,6.4,7.11L7.53,5.91h.08A1.69,1.69,0,0,0,9.2,4.39a1.41,1.41,0,0,0,0-.24l1.14-1.22a2.92,2.92,0,0,1,.32,1.54A3.1,3.1,0,0,1,7.71,7.3Z" transform="translate(0)"/><path class="cls-1" d="M5.81,4.18a1.51,1.51,0,0,0,.35,1.09L8.39,2.91A1.7,1.7,0,0,0,5.81,4.18Z" transform="translate(0)"/></svg>